<svg xmlns="http://www.w3.org/2000/svg" xmlns:xlink="http://www.w3.org/1999/xlink" width="120" zoomAndPan="magnify" viewBox="0 0 90 89.999999" height="120" preserveAspectRatio="xMidYMid meet" version="1.0"><path fill="#bd081b" d="M 13.5 0 L 76.5 0 C 77.386719 0 78.265625 0.0859375 79.132812 0.257812 C 80.003906 0.433594 80.847656 0.6875 81.667969 1.027344 C 82.484375 1.367188 83.261719 1.78125 84 2.273438 C 84.738281 2.769531 85.417969 3.328125 86.046875 3.953125 C 86.671875 4.582031 87.230469 5.261719 87.726562 6 C 88.21875 6.738281 88.632812 7.515625 88.972656 8.332031 C 89.3125 9.152344 89.566406 9.996094 89.742188 10.867188 C 89.914062 11.734375 90 12.613281 90 13.5 L 90 76.5 C 90 77.386719 89.914062 78.265625 89.742188 79.132812 C 89.566406 80.003906 89.3125 80.847656 88.972656 81.667969 C 88.632812 82.484375 88.21875 83.261719 87.726562 84 C 87.230469 84.738281 86.671875 85.417969 86.046875 86.046875 C 85.417969 86.671875 84.738281 87.230469 84 87.726562 C 83.261719 88.21875 82.484375 88.632812 81.667969 88.972656 C 80.847656 89.3125 80.003906 89.566406 79.132812 89.742188 C 78.265625 89.914062 77.386719 90 76.5 90 L 13.5 90 C 12.613281 90 11.734375 89.914062 10.867188 89.742188 C 9.996094 89.566406 9.152344 89.3125 8.332031 88.972656 C 7.515625 88.632812 6.738281 88.21875 6 87.726562 C 5.261719 87.230469 4.582031 86.671875 3.953125 86.046875 C 3.328125 85.417969 2.769531 84.738281 2.273438 84 C 1.78125 83.261719 1.367188 82.484375 1.027344 81.667969 C 0.6875 80.847656 0.433594 80.003906 0.257812 79.132812 C 0.0859375 78.265625 0 77.386719 0 76.5 L 0 13.5 C 0 12.613281 0.0859375 11.734375 0.257812 10.867188 C 0.433594 9.996094 0.6875 9.152344 1.027344 8.332031 C 1.367188 7.515625 1.78125 6.738281 2.273438 6 C 2.769531 5.261719 3.328125 4.582031 3.953125 3.953125 C 4.582031 3.328125 5.261719 2.769531 6 2.273438 C 6.738281 1.78125 7.515625 1.367188 8.332031 1.027344 C 9.152344 0.6875 9.996094 0.433594 10.867188 0.257812 C 11.734375 0.0859375 12.613281 0 13.5 0 Z M 13.5 0 " fill-opacity="1" fill-rule="nonzero"/><path fill="#ffffff" d="M 46.582031 9.84375 C 27.421875 9.84375 17.753906 23.554688 17.753906 35.15625 C 17.753906 42.011719 20.390625 48.164062 26.015625 50.449219 C 26.894531 50.800781 27.773438 50.449219 28.125 49.570312 L 28.828125 46.230469 C 29.179688 45.175781 29.003906 44.824219 28.300781 43.945312 C 26.71875 42.011719 25.664062 39.550781 25.664062 36.035156 C 25.664062 25.839844 33.222656 16.699219 45.527344 16.699219 C 56.425781 16.699219 62.402344 23.378906 62.402344 32.167969 C 62.402344 43.945312 57.128906 53.613281 49.570312 53.613281 C 45.351562 53.613281 42.1875 50.273438 43.242188 45.878906 C 44.296875 40.78125 46.757812 35.332031 46.757812 31.640625 C 46.757812 28.300781 45 25.488281 41.308594 25.488281 C 36.914062 25.488281 33.574219 30.058594 33.574219 36.035156 C 33.574219 39.726562 34.804688 42.363281 34.804688 42.363281 L 29.53125 64.335938 C 28.125 70.839844 29.355469 78.925781 29.53125 79.628906 C 29.53125 80.15625 30.234375 80.332031 30.410156 79.980469 C 30.761719 79.453125 36.035156 73.125 37.792969 66.796875 L 40.605469 55.546875 C 42.011719 58.359375 46.054688 60.644531 50.449219 60.644531 C 63.457031 60.644531 72.246094 48.867188 72.246094 33.046875 C 72.246094 20.917969 62.050781 9.84375 46.582031 9.84375 Z M 46.582031 9.84375 " fill-opacity="1" fill-rule="nonzero"/></svg>