<svg xmlns="http://www.w3.org/2000/svg" xmlns:xlink="http://www.w3.org/1999/xlink" width="120" zoomAndPan="magnify" viewBox="0 0 90 89.999999" height="120" preserveAspectRatio="xMidYMid meet" version="1.0"><path fill="#1ed660" d="M 45.3125 89.816406 C 20.929688 90 0.128906 70.035156 0.433594 44.484375 C 0.738281 20.027344 20.867188 0 45.984375 0.363281 C 70.855469 0.726562 90.621094 21.300781 90.074219 46 C 89.648438 70.214844 69.761719 89.9375 45.3125 89.816406 Z M 39.292969 24.03125 C 35.097656 24.03125 31.386719 24.273438 27.738281 24.699219 C 24.210938 25.125 20.746094 25.792969 17.339844 26.824219 C 15.453125 27.429688 14.117188 29.3125 14.359375 31.070312 C 14.726562 33.984375 17.15625 35.5625 20.015625 34.714844 C 23.117188 33.804688 26.21875 33.195312 29.441406 32.832031 C 33.941406 32.285156 38.441406 32.164062 42.941406 32.40625 C 47.078125 32.589844 51.214844 33.074219 55.289062 33.925781 C 61.1875 35.136719 66.84375 37.019531 72.070312 40.054688 C 73.714844 41.023438 75.84375 40.601562 77.121094 39.144531 C 78.882812 37.203125 78.457031 34.167969 76.148438 32.769531 C 72.863281 30.769531 69.335938 29.25 65.625 28.039062 C 56.867188 25.246094 47.867188 24.09375 39.292969 24.03125 Z M 37.652344 46.425781 C 40.753906 46.425781 43.792969 46.667969 46.835938 47.09375 C 53.828125 48.125 60.457031 50.1875 66.539062 53.828125 C 67.144531 54.195312 67.816406 54.375 68.542969 54.316406 C 70.125 54.195312 71.34375 53.164062 71.707031 51.644531 C 72.070312 50.128906 71.464844 48.671875 70.066406 47.820312 C 66.660156 45.757812 63.011719 44.121094 59.179688 42.84375 C 51.089844 40.175781 42.820312 39.082031 34.308594 39.507812 C 29.441406 39.75 24.636719 40.539062 19.953125 41.933594 C 18.007812 42.542969 16.976562 44.421875 17.523438 46.304688 C 18.070312 48.125 20.015625 49.15625 21.902344 48.609375 C 27.070312 47.09375 32.300781 46.425781 37.652344 46.425781 Z M 38.320312 54.074219 C 37.042969 54.074219 35.828125 54.132812 34.550781 54.195312 C 30.109375 54.4375 25.730469 55.105469 21.355469 56.136719 C 20.441406 56.316406 19.773438 56.925781 19.40625 57.773438 C 18.980469 58.804688 19.105469 59.777344 19.832031 60.566406 C 20.625 61.539062 21.65625 61.71875 22.875 61.476562 C 28.589844 60.203125 34.308594 59.472656 40.144531 59.65625 C 43.0625 59.777344 45.984375 60.082031 48.839844 60.6875 C 53.464844 61.660156 57.839844 63.359375 61.917969 65.785156 C 63.316406 66.636719 64.957031 66.210938 65.746094 64.875 C 66.597656 63.539062 66.171875 61.902344 64.714844 60.992188 C 63.496094 60.261719 62.21875 59.535156 60.882812 58.929688 C 53.765625 55.46875 46.226562 54.074219 38.320312 54.074219 Z M 38.320312 54.074219 " fill-opacity="1" fill-rule="nonzero"/><path fill="#020202" d="M 39.292969 24.03125 C 47.867188 24.09375 56.867188 25.246094 65.566406 28.160156 C 69.214844 29.371094 72.742188 30.890625 76.085938 32.894531 C 78.398438 34.289062 78.824219 37.261719 77.058594 39.265625 C 75.78125 40.660156 73.714844 41.085938 72.011719 40.175781 C 66.78125 37.140625 61.125 35.257812 55.226562 34.046875 C 51.152344 33.195312 47.015625 32.769531 42.882812 32.527344 C 38.382812 32.285156 33.882812 32.40625 29.382812 32.953125 C 26.21875 33.316406 23.054688 33.863281 19.953125 34.835938 C 17.15625 35.683594 14.664062 34.105469 14.300781 31.195312 C 14.054688 29.433594 15.394531 27.492188 17.277344 26.945312 C 20.683594 25.914062 24.152344 25.246094 27.679688 24.820312 C 31.386719 24.273438 35.035156 24.03125 39.292969 24.03125 Z M 39.292969 24.03125 " fill-opacity="1" fill-rule="nonzero"/><path fill="#020202" d="M 37.652344 46.425781 C 32.300781 46.425781 27.070312 47.09375 21.902344 48.609375 C 20.015625 49.15625 18.070312 48.1875 17.523438 46.304688 C 16.976562 44.421875 18.007812 42.542969 19.953125 41.933594 C 24.636719 40.539062 29.441406 39.75 34.308594 39.507812 C 42.820312 39.082031 51.089844 40.175781 59.179688 42.84375 C 63.011719 44.121094 66.597656 45.757812 70.066406 47.820312 C 71.464844 48.671875 72.070312 50.128906 71.707031 51.644531 C 71.34375 53.101562 70.125 54.132812 68.542969 54.316406 C 67.816406 54.375 67.144531 54.195312 66.539062 53.828125 C 60.457031 50.1875 53.828125 48.125 46.835938 47.09375 C 43.792969 46.667969 40.753906 46.425781 37.652344 46.425781 Z M 37.652344 46.425781 " fill-opacity="1" fill-rule="nonzero"/><path fill="#020202" d="M 38.320312 54.074219 C 46.226562 54.074219 53.765625 55.53125 60.941406 58.929688 C 62.28125 59.535156 63.558594 60.261719 64.773438 60.992188 C 66.234375 61.839844 66.660156 63.480469 65.808594 64.875 C 65.019531 66.210938 63.375 66.636719 61.976562 65.785156 C 57.902344 63.359375 53.585938 61.660156 48.902344 60.6875 C 46.042969 60.082031 43.125 59.777344 40.207031 59.65625 C 34.367188 59.472656 28.589844 60.203125 22.933594 61.476562 C 21.71875 61.71875 20.683594 61.539062 19.894531 60.566406 C 19.164062 59.714844 19.042969 58.746094 19.46875 57.773438 C 19.832031 56.925781 20.503906 56.378906 21.414062 56.136719 C 25.730469 55.164062 30.109375 54.4375 34.609375 54.195312 C 35.828125 54.074219 37.042969 54.011719 38.320312 54.074219 Z M 38.320312 54.074219 " fill-opacity="1" fill-rule="nonzero"/></svg>