<svg xmlns="http://www.w3.org/2000/svg" xmlns:xlink="http://www.w3.org/1999/xlink" width="120" zoomAndPan="magnify" viewBox="0 0 90 89.999999" height="120" preserveAspectRatio="xMidYMid meet" version="1.0"><defs><clipPath id="a3cf908e4c"><path d="M 0 10.441406 L 90 10.441406 L 90 73.441406 L 0 73.441406 Z M 0 10.441406 " clip-rule="nonzero"/></clipPath></defs><g clip-path="url(#a3cf908e4c)"><path fill="#ff0000" d="M 88.035156 20.320312 C 87.777344 19.371094 87.398438 18.472656 86.902344 17.621094 C 86.40625 16.769531 85.808594 15.996094 85.109375 15.300781 C 84.410156 14.605469 83.632812 14.011719 82.777344 13.515625 C 81.921875 13.023438 81.019531 12.648438 80.0625 12.390625 C 73.074219 10.492188 44.945312 10.492188 44.945312 10.492188 C 44.945312 10.492188 16.8125 10.546875 9.820312 12.445312 C 8.867188 12.703125 7.960938 13.078125 7.105469 13.574219 C 6.25 14.066406 5.472656 14.660156 4.773438 15.355469 C 4.074219 16.050781 3.476562 16.824219 2.980469 17.675781 C 2.484375 18.527344 2.109375 19.425781 1.847656 20.378906 C 0 27.332031 0 41.871094 0 41.871094 C 0 41.871094 0 56.410156 1.90625 63.421875 C 2.164062 64.371094 2.542969 65.269531 3.039062 66.121094 C 3.535156 66.972656 4.132812 67.746094 4.832031 68.441406 C 5.53125 69.136719 6.308594 69.730469 7.164062 70.226562 C 8.019531 70.71875 8.925781 71.09375 9.878906 71.351562 C 16.867188 73.25 45 73.25 45 73.25 C 45 73.25 73.132812 73.25 80.121094 71.351562 C 81.078125 71.09375 81.980469 70.71875 82.835938 70.226562 C 83.691406 69.734375 84.472656 69.140625 85.171875 68.441406 C 85.871094 67.746094 86.464844 66.972656 86.960938 66.121094 C 87.457031 65.273438 87.835938 64.371094 88.09375 63.421875 C 90 56.46875 90 41.871094 90 41.871094 C 90 41.871094 89.945312 27.332031 88.035156 20.320312 Z M 88.035156 20.320312 " fill-opacity="1" fill-rule="nonzero"/></g><path fill="#ffffff" d="M 35.988281 55.316406 L 59.324219 41.871094 L 35.988281 28.425781 Z M 35.988281 55.316406 " fill-opacity="1" fill-rule="nonzero"/></svg>