<svg xmlns="http://www.w3.org/2000/svg" xmlns:xlink="http://www.w3.org/1999/xlink" width="120" zoomAndPan="magnify" viewBox="0 0 90 89.999999" height="120" preserveAspectRatio="xMidYMid meet" version="1.0"><defs><clipPath id="067df210b7"><path d="M 1 7.035156 L 90 7.035156 L 90 81 L 1 81 Z M 1 7.035156 " clip-rule="nonzero"/></clipPath></defs><g clip-path="url(#067df210b7)"><path fill="#ed1c40" d="M 76.15625 80.242188 C 69.472656 79.058594 62.5625 74.734375 61.207031 67.609375 C 60.449219 61.40625 61.636719 55.042969 64.722656 49.605469 L 74.109375 31.894531 C 75.949219 28.277344 71.683594 23.863281 68.371094 26.8125 C 64.203125 30.796875 62.589844 36.527344 60 41.519531 C 56.636719 48.4375 53.917969 55.734375 49.808594 62.253906 C 47.785156 65.457031 44.265625 68.894531 40.160156 67.414062 C 35.605469 66.011719 36.8125 60.667969 38.300781 57.363281 C 40.839844 49.835938 45.074219 42.796875 46.082031 34.8125 C 47.75 30.230469 41.03125 26.890625 38.71875 31.359375 L 29.761719 52.707031 C 27.144531 58.613281 26.390625 65.148438 23.859375 71.007812 C 21.488281 75.628906 15.421875 76.234375 10.839844 75.6875 C 5.882812 75.015625 1.101562 71.007812 1.308594 65.679688 C 0.789062 57.964844 4.261719 50.777344 5.996094 43.417969 C 8.339844 35.433594 11.121094 27.554688 14.402344 19.910156 C 16.863281 14.863281 20.777344 8.851562 27.082031 8.949219 C 32.707031 8.324219 37.214844 12.402344 42.308594 13.898438 C 48.378906 14.902344 50.847656 6.785156 56.839844 7.277344 C 61.457031 7.058594 64 12.988281 68.597656 12.054688 C 73.953125 10.277344 80.605469 9.441406 85.335938 13.152344 C 89.554688 17.148438 88.171875 23.652344 86.710938 28.609375 C 83.453125 39.488281 76.386719 48.960938 74.277344 60.207031 C 73.285156 64.105469 74.621094 69.527344 79.417969 69.726562 C 83.242188 70.289062 89.207031 71 89.457031 75.917969 C 87.46875 80.90625 80.636719 81.09375 76.175781 80.195312 Z M 76.15625 80.242188 " fill-opacity="1" fill-rule="nonzero"/></g></svg>