<svg xmlns="http://www.w3.org/2000/svg" xmlns:xlink="http://www.w3.org/1999/xlink" width="120" zoomAndPan="magnify" viewBox="0 0 90 89.999999" height="120" preserveAspectRatio="xMidYMid meet" version="1.0"><path fill="#ff4500" d="M 13.5 0 L 76.5 0 C 77.386719 0 78.265625 0.0859375 79.132812 0.257812 C 80.003906 0.433594 80.847656 0.6875 81.667969 1.027344 C 82.484375 1.367188 83.261719 1.78125 84 2.273438 C 84.738281 2.769531 85.417969 3.328125 86.046875 3.953125 C 86.671875 4.582031 87.230469 5.261719 87.726562 6 C 88.21875 6.738281 88.632812 7.515625 88.972656 8.332031 C 89.3125 9.152344 89.566406 9.996094 89.742188 10.867188 C 89.914062 11.734375 90 12.613281 90 13.5 L 90 76.5 C 90 77.386719 89.914062 78.265625 89.742188 79.132812 C 89.566406 80.003906 89.3125 80.847656 88.972656 81.667969 C 88.632812 82.484375 88.21875 83.261719 87.726562 84 C 87.230469 84.738281 86.671875 85.417969 86.046875 86.046875 C 85.417969 86.671875 84.738281 87.230469 84 87.726562 C 83.261719 88.21875 82.484375 88.632812 81.667969 88.972656 C 80.847656 89.3125 80.003906 89.566406 79.132812 89.742188 C 78.265625 89.914062 77.386719 90 76.5 90 L 13.5 90 C 12.613281 90 11.734375 89.914062 10.867188 89.742188 C 9.996094 89.566406 9.152344 89.3125 8.332031 88.972656 C 7.515625 88.632812 6.738281 88.21875 6 87.726562 C 5.261719 87.230469 4.582031 86.671875 3.953125 86.046875 C 3.328125 85.417969 2.769531 84.738281 2.273438 84 C 1.78125 83.261719 1.367188 82.484375 1.027344 81.667969 C 0.6875 80.847656 0.433594 80.003906 0.257812 79.132812 C 0.0859375 78.265625 0 77.386719 0 76.5 L 0 13.5 C 0 12.613281 0.0859375 11.734375 0.257812 10.867188 C 0.433594 9.996094 0.6875 9.152344 1.027344 8.332031 C 1.367188 7.515625 1.78125 6.738281 2.273438 6 C 2.769531 5.261719 3.328125 4.582031 3.953125 3.953125 C 4.582031 3.328125 5.261719 2.769531 6 2.273438 C 6.738281 1.78125 7.515625 1.367188 8.332031 1.027344 C 9.152344 0.6875 9.996094 0.433594 10.867188 0.257812 C 11.734375 0.0859375 12.613281 0 13.5 0 Z M 13.5 0 " fill-opacity="1" fill-rule="nonzero"/><path fill="#ffffff" d="M 76.113281 53.613281 C 76.113281 54.320312 76.0625 55.027344 75.964844 55.734375 C 75.863281 56.4375 75.714844 57.136719 75.515625 57.832031 C 75.316406 58.527344 75.070312 59.210938 74.773438 59.890625 C 74.476562 60.566406 74.136719 61.234375 73.746094 61.886719 C 73.355469 62.542969 72.917969 63.179688 72.441406 63.804688 C 71.960938 64.429688 71.4375 65.035156 70.871094 65.625 C 70.304688 66.214844 69.699219 66.78125 69.050781 67.328125 C 68.40625 67.875 67.722656 68.402344 67 68.902344 C 66.28125 69.402344 65.527344 69.878906 64.738281 70.328125 C 63.949219 70.777344 63.132812 71.195312 62.285156 71.589844 C 61.4375 71.984375 60.566406 72.347656 59.667969 72.679688 C 58.769531 73.015625 57.847656 73.316406 56.90625 73.589844 C 55.964844 73.859375 55.007812 74.097656 54.03125 74.304688 C 53.054688 74.507812 52.070312 74.679688 51.070312 74.820312 C 50.070312 74.957031 49.0625 75.0625 48.050781 75.128906 C 47.035156 75.199219 46.019531 75.234375 45 75.234375 C 43.980469 75.234375 42.964844 75.199219 41.949219 75.128906 C 40.9375 75.0625 39.929688 74.957031 38.929688 74.820312 C 37.929688 74.679688 36.945312 74.507812 35.96875 74.304688 C 34.992188 74.097656 34.035156 73.859375 33.09375 73.589844 C 32.152344 73.316406 31.230469 73.015625 30.332031 72.679688 C 29.433594 72.347656 28.5625 71.984375 27.714844 71.589844 C 26.867188 71.195312 26.050781 70.777344 25.261719 70.328125 C 24.472656 69.878906 23.71875 69.402344 23 68.902344 C 22.277344 68.402344 21.59375 67.875 20.949219 67.328125 C 20.300781 66.78125 19.695312 66.214844 19.128906 65.625 C 18.5625 65.035156 18.039062 64.429688 17.558594 63.804688 C 17.082031 63.179688 16.644531 62.542969 16.253906 61.886719 C 15.863281 61.234375 15.523438 60.566406 15.226562 59.890625 C 14.929688 59.210938 14.683594 58.527344 14.484375 57.832031 C 14.285156 57.136719 14.136719 56.4375 14.035156 55.734375 C 13.9375 55.027344 13.886719 54.320312 13.886719 53.613281 C 13.886719 52.90625 13.9375 52.199219 14.035156 51.492188 C 14.136719 50.789062 14.285156 50.089844 14.484375 49.394531 C 14.683594 48.699219 14.929688 48.015625 15.226562 47.335938 C 15.523438 46.660156 15.863281 45.992188 16.253906 45.339844 C 16.644531 44.683594 17.082031 44.046875 17.558594 43.421875 C 18.039062 42.796875 18.5625 42.191406 19.128906 41.601562 C 19.695312 41.011719 20.300781 40.445312 20.949219 39.898438 C 21.59375 39.351562 22.277344 38.824219 23 38.324219 C 23.71875 37.824219 24.472656 37.347656 25.261719 36.898438 C 26.050781 36.449219 26.867188 36.03125 27.714844 35.636719 C 28.5625 35.242188 29.433594 34.878906 30.332031 34.546875 C 31.230469 34.210938 32.152344 33.910156 33.09375 33.636719 C 34.035156 33.367188 34.992188 33.128906 35.96875 32.921875 C 36.945312 32.71875 37.929688 32.546875 38.929688 32.40625 C 39.929688 32.269531 40.9375 32.164062 41.949219 32.097656 C 42.964844 32.027344 43.980469 31.992188 45 31.992188 C 46.019531 31.992188 47.035156 32.027344 48.050781 32.097656 C 49.0625 32.164062 50.070312 32.269531 51.070312 32.40625 C 52.070312 32.546875 53.054688 32.71875 54.03125 32.921875 C 55.007812 33.128906 55.964844 33.367188 56.90625 33.636719 C 57.847656 33.910156 58.769531 34.210938 59.667969 34.546875 C 60.566406 34.878906 61.4375 35.242188 62.285156 35.636719 C 63.132812 36.03125 63.949219 36.449219 64.738281 36.898438 C 65.527344 37.347656 66.28125 37.824219 67 38.324219 C 67.722656 38.824219 68.40625 39.351562 69.050781 39.898438 C 69.699219 40.445312 70.304688 41.011719 70.871094 41.601562 C 71.4375 42.191406 71.960938 42.796875 72.441406 43.421875 C 72.917969 44.046875 73.355469 44.683594 73.746094 45.339844 C 74.136719 45.992188 74.476562 46.660156 74.773438 47.335938 C 75.070312 48.015625 75.316406 48.699219 75.515625 49.394531 C 75.714844 50.089844 75.863281 50.789062 75.964844 51.492188 C 76.0625 52.199219 76.113281 52.90625 76.113281 53.613281 Z M 76.113281 53.613281 " fill-opacity="1" fill-rule="nonzero"/><path fill="#ff4500" d="M 34.980469 60.996094 C 41.132812 66.09375 48.867188 66.09375 55.019531 60.996094 L 57.128906 62.929688 C 49.746094 69.082031 40.253906 69.082031 32.871094 62.929688 Z M 34.980469 60.996094 " fill-opacity="1" fill-rule="nonzero"/><path fill="#ff4500" d="M 60.292969 50.097656 C 60.292969 50.421875 60.261719 50.742188 60.199219 51.058594 C 60.136719 51.375 60.042969 51.683594 59.917969 51.980469 C 59.792969 52.28125 59.644531 52.5625 59.464844 52.832031 C 59.285156 53.101562 59.078125 53.347656 58.851562 53.578125 C 58.621094 53.804688 58.375 54.011719 58.105469 54.191406 C 57.835938 54.371094 57.554688 54.519531 57.253906 54.644531 C 56.957031 54.769531 56.648438 54.863281 56.332031 54.925781 C 56.015625 54.988281 55.695312 55.019531 55.371094 55.019531 C 55.046875 55.019531 54.726562 54.988281 54.410156 54.925781 C 54.09375 54.863281 53.785156 54.769531 53.488281 54.644531 C 53.1875 54.519531 52.90625 54.371094 52.636719 54.191406 C 52.367188 54.011719 52.121094 53.804688 51.890625 53.578125 C 51.664062 53.347656 51.457031 53.101562 51.277344 52.832031 C 51.097656 52.5625 50.949219 52.28125 50.824219 51.980469 C 50.699219 51.683594 50.605469 51.375 50.542969 51.058594 C 50.480469 50.742188 50.449219 50.421875 50.449219 50.097656 C 50.449219 49.773438 50.480469 49.453125 50.542969 49.136719 C 50.605469 48.820312 50.699219 48.511719 50.824219 48.214844 C 50.949219 47.914062 51.097656 47.632812 51.277344 47.363281 C 51.457031 47.09375 51.664062 46.847656 51.890625 46.617188 C 52.121094 46.390625 52.367188 46.183594 52.636719 46.003906 C 52.90625 45.824219 53.1875 45.675781 53.488281 45.550781 C 53.785156 45.425781 54.09375 45.332031 54.410156 45.269531 C 54.726562 45.207031 55.046875 45.175781 55.371094 45.175781 C 55.695312 45.175781 56.015625 45.207031 56.332031 45.269531 C 56.648438 45.332031 56.957031 45.425781 57.253906 45.550781 C 57.554688 45.675781 57.835938 45.824219 58.105469 46.003906 C 58.375 46.183594 58.621094 46.390625 58.851562 46.617188 C 59.078125 46.847656 59.285156 47.09375 59.464844 47.363281 C 59.644531 47.632812 59.792969 47.914062 59.917969 48.214844 C 60.042969 48.511719 60.136719 48.820312 60.199219 49.136719 C 60.261719 49.453125 60.292969 49.773438 60.292969 50.097656 Z M 60.292969 50.097656 " fill-opacity="1" fill-rule="nonzero"/><path fill="#ff4500" d="M 39.550781 50.097656 C 39.550781 50.421875 39.519531 50.742188 39.457031 51.058594 C 39.394531 51.375 39.300781 51.683594 39.175781 51.980469 C 39.050781 52.28125 38.902344 52.5625 38.722656 52.832031 C 38.542969 53.101562 38.335938 53.347656 38.109375 53.578125 C 37.878906 53.804688 37.632812 54.011719 37.363281 54.191406 C 37.09375 54.371094 36.8125 54.519531 36.511719 54.644531 C 36.214844 54.769531 35.90625 54.863281 35.589844 54.925781 C 35.273438 54.988281 34.953125 55.019531 34.628906 55.019531 C 34.304688 55.019531 33.984375 54.988281 33.667969 54.925781 C 33.351562 54.863281 33.042969 54.769531 32.746094 54.644531 C 32.445312 54.519531 32.164062 54.371094 31.894531 54.191406 C 31.625 54.011719 31.378906 53.804688 31.148438 53.578125 C 30.921875 53.347656 30.714844 53.101562 30.535156 52.832031 C 30.355469 52.5625 30.207031 52.28125 30.082031 51.980469 C 29.957031 51.683594 29.863281 51.375 29.800781 51.058594 C 29.738281 50.742188 29.707031 50.421875 29.707031 50.097656 C 29.707031 49.773438 29.738281 49.453125 29.800781 49.136719 C 29.863281 48.820312 29.957031 48.511719 30.082031 48.214844 C 30.207031 47.914062 30.355469 47.632812 30.535156 47.363281 C 30.714844 47.09375 30.921875 46.847656 31.148438 46.617188 C 31.378906 46.390625 31.625 46.183594 31.894531 46.003906 C 32.164062 45.824219 32.445312 45.675781 32.746094 45.550781 C 33.042969 45.425781 33.351562 45.332031 33.667969 45.269531 C 33.984375 45.207031 34.304688 45.175781 34.628906 45.175781 C 34.953125 45.175781 35.273438 45.207031 35.589844 45.269531 C 35.90625 45.332031 36.214844 45.425781 36.511719 45.550781 C 36.8125 45.675781 37.09375 45.824219 37.363281 46.003906 C 37.632812 46.183594 37.878906 46.390625 38.109375 46.617188 C 38.335938 46.847656 38.542969 47.09375 38.722656 47.363281 C 38.902344 47.632812 39.050781 47.914062 39.175781 48.214844 C 39.300781 48.511719 39.394531 48.820312 39.457031 49.136719 C 39.519531 49.453125 39.550781 49.773438 39.550781 50.097656 Z M 39.550781 50.097656 " fill-opacity="1" fill-rule="nonzero"/><path stroke-linecap="butt" transform="matrix(0.175781, 0, 0, 0.175781, 0.0000005, 0.000002)" fill="none" stroke-linejoin="miter" d="M 418.000016 124.999994 C 418.000016 126.844439 417.822239 128.666661 417.466683 130.466661 C 417.111127 132.266661 416.577794 134.022217 415.866683 135.711106 C 415.155572 137.422217 414.311127 139.022217 413.288905 140.555551 C 412.266683 142.088884 411.088905 143.488884 409.800016 144.799995 C 408.488905 146.088884 407.088905 147.266662 405.555571 148.288884 C 404.022238 149.311107 402.422238 150.155551 400.711127 150.866662 C 399.022238 151.577773 397.266682 152.111107 395.466682 152.466662 C 393.666682 152.822218 391.84446 152.999996 390.000015 152.999996 C 388.155571 152.999996 386.333348 152.822218 384.533348 152.466662 C 382.733348 152.111107 380.977792 151.577773 379.288903 150.866662 C 377.577792 150.155551 375.977792 149.311107 374.444459 148.288884 C 372.911125 147.266662 371.511125 146.088884 370.200014 144.799995 C 368.911125 143.488884 367.733347 142.088884 366.711125 140.555551 C 365.688903 139.022217 364.844458 137.422217 364.133347 135.711106 C 363.422236 134.022217 362.888903 132.266661 362.533347 130.466661 C 362.177792 128.666661 362.000014 126.844439 362.000014 124.999994 C 362.000014 123.15555 362.177792 121.333328 362.533347 119.533327 C 362.888903 117.733327 363.422236 115.977772 364.133347 114.288883 C 364.844458 112.577772 365.688903 110.977771 366.711125 109.444438 C 367.733347 107.911105 368.911125 106.511105 370.200014 105.199993 C 371.511125 103.911105 372.911125 102.733327 374.444459 101.711104 C 375.977792 100.688882 377.577792 99.844438 379.288903 99.133327 C 380.977792 98.422215 382.733348 97.888882 384.533348 97.533326 C 386.333348 97.177771 388.155571 96.999993 390.000015 96.999993 C 391.84446 96.999993 393.666682 97.177771 395.466682 97.533326 C 397.266682 97.888882 399.022238 98.422215 400.711127 99.133327 C 402.422238 99.844438 404.022238 100.688882 405.555571 101.711104 C 407.088905 102.733327 408.488905 103.911105 409.800016 105.199993 C 411.088905 106.511105 412.266683 107.911105 413.288905 109.444438 C 414.311127 110.977771 415.155572 112.577772 415.866683 114.288883 C 416.577794 115.977772 417.111127 117.733327 417.466683 119.533327 C 417.822239 121.333328 418.000016 123.15555 418.000016 124.999994 Z M 418.000016 124.999994 " stroke="#ffffff" stroke-width="25" stroke-opacity="1" stroke-miterlimit="4"/><path stroke-linecap="butt" transform="matrix(0.175781, 0, 0, 0.175781, 0.0000005, 0.000002)" fill="none" stroke-linejoin="miter" d="M 87.000001 282.000002 C 41.999999 260.000001 82.000001 189.999997 127.000003 231.999999 M 425.000017 282.000002 C 470.000019 260.000001 430.000017 189.999997 385.000015 231.999999 M 258.000009 186.999997 L 282.00001 103.999993 L 362.000014 119.999994 " stroke="#ffffff" stroke-width="22" stroke-opacity="1" stroke-miterlimit="4"/></svg>