<svg xmlns="http://www.w3.org/2000/svg" xmlns:xlink="http://www.w3.org/1999/xlink" width="120" zoomAndPan="magnify" viewBox="0 0 90 89.999999" height="120" preserveAspectRatio="xMidYMid meet" version="1.0"><defs><clipPath id="2ef274ad45"><path d="M 0 2.03125 L 90 2.03125 L 90 86.78125 L 0 86.78125 Z M 0 2.03125 " clip-rule="nonzero"/></clipPath><clipPath id="85a448438c"><path d="M 0 2.03125 L 90 2.03125 L 90 86.78125 L 0 86.78125 Z M 0 2.03125 " clip-rule="nonzero"/></clipPath></defs><g clip-path="url(#2ef274ad45)"><path fill="#00d464" d="M 3.882812 -15.625 L 86.117188 -15.625 C 86.730469 -15.625 87.339844 -15.59375 87.949219 -15.535156 C 88.558594 -15.472656 89.164062 -15.382812 89.765625 -15.265625 C 90.363281 -15.144531 90.957031 -14.996094 91.542969 -14.816406 C 92.128906 -14.640625 92.703125 -14.433594 93.269531 -14.195312 C 93.835938 -13.960938 94.386719 -13.699219 94.929688 -13.410156 C 95.46875 -13.121094 95.992188 -12.804688 96.5 -12.464844 C 97.011719 -12.121094 97.5 -11.757812 97.972656 -11.367188 C 98.449219 -10.976562 98.902344 -10.566406 99.332031 -10.128906 C 99.765625 -9.695312 100.175781 -9.242188 100.566406 -8.765625 C 100.953125 -8.292969 101.316406 -7.796875 101.65625 -7.289062 C 101.996094 -6.777344 102.3125 -6.25 102.601562 -5.707031 C 102.890625 -5.167969 103.152344 -4.613281 103.386719 -4.042969 C 103.621094 -3.476562 103.824219 -2.898438 104.003906 -2.3125 C 104.179688 -1.722656 104.328125 -1.128906 104.449219 -0.523438 C 104.566406 0.078125 104.65625 0.683594 104.71875 1.296875 C 104.777344 1.90625 104.808594 2.519531 104.808594 3.136719 L 104.808594 85.679688 C 104.808594 86.292969 104.777344 86.90625 104.71875 87.519531 C 104.65625 88.128906 104.566406 88.734375 104.449219 89.339844 C 104.328125 89.941406 104.179688 90.535156 104.003906 91.125 C 103.824219 91.710938 103.621094 92.289062 103.386719 92.859375 C 103.152344 93.425781 102.890625 93.980469 102.601562 94.523438 C 102.3125 95.0625 101.996094 95.589844 101.65625 96.101562 C 101.316406 96.613281 100.953125 97.105469 100.566406 97.578125 C 100.175781 98.054688 99.765625 98.507812 99.332031 98.945312 C 98.902344 99.378906 98.449219 99.789062 97.972656 100.179688 C 97.5 100.570312 97.011719 100.9375 96.5 101.277344 C 95.992188 101.617188 95.46875 101.933594 94.929688 102.222656 C 94.386719 102.511719 93.835938 102.777344 93.269531 103.011719 C 92.703125 103.246094 92.128906 103.453125 91.542969 103.632812 C 90.957031 103.808594 90.363281 103.957031 89.765625 104.078125 C 89.164062 104.199219 88.558594 104.289062 87.949219 104.347656 C 87.339844 104.410156 86.730469 104.4375 86.117188 104.4375 L 3.882812 104.4375 C 3.269531 104.4375 2.660156 104.410156 2.050781 104.347656 C 1.441406 104.289062 0.835938 104.199219 0.234375 104.078125 C -0.363281 103.957031 -0.957031 103.808594 -1.542969 103.632812 C -2.128906 103.453125 -2.703125 103.246094 -3.269531 103.011719 C -3.835938 102.777344 -4.386719 102.511719 -4.929688 102.222656 C -5.46875 101.933594 -5.992188 101.617188 -6.5 101.277344 C -7.011719 100.9375 -7.5 100.570312 -7.972656 100.179688 C -8.449219 99.789062 -8.902344 99.378906 -9.332031 98.945312 C -9.765625 98.507812 -10.175781 98.054688 -10.566406 97.578125 C -10.953125 97.105469 -11.316406 96.613281 -11.65625 96.101562 C -11.996094 95.589844 -12.3125 95.0625 -12.601562 94.523438 C -12.890625 93.980469 -13.152344 93.425781 -13.386719 92.859375 C -13.621094 92.289062 -13.824219 91.710938 -14.003906 91.125 C -14.179688 90.535156 -14.328125 89.941406 -14.449219 89.339844 C -14.566406 88.734375 -14.65625 88.128906 -14.71875 87.519531 C -14.777344 86.90625 -14.808594 86.292969 -14.808594 85.679688 L -14.808594 3.136719 C -14.808594 2.519531 -14.777344 1.90625 -14.71875 1.296875 C -14.65625 0.683594 -14.566406 0.078125 -14.449219 -0.523438 C -14.328125 -1.128906 -14.179688 -1.722656 -14.003906 -2.3125 C -13.824219 -2.898438 -13.621094 -3.476562 -13.386719 -4.042969 C -13.152344 -4.613281 -12.890625 -5.167969 -12.601562 -5.707031 C -12.3125 -6.25 -11.996094 -6.777344 -11.65625 -7.289062 C -11.316406 -7.796875 -10.953125 -8.292969 -10.566406 -8.765625 C -10.175781 -9.242188 -9.765625 -9.695312 -9.332031 -10.128906 C -8.902344 -10.566406 -8.449219 -10.976562 -7.972656 -11.367188 C -7.5 -11.757812 -7.011719 -12.121094 -6.5 -12.464844 C -5.992188 -12.804688 -5.46875 -13.121094 -4.929688 -13.410156 C -4.386719 -13.699219 -3.835938 -13.960938 -3.269531 -14.195312 C -2.703125 -14.433594 -2.128906 -14.640625 -1.542969 -14.816406 C -0.957031 -14.996094 -0.363281 -15.144531 0.234375 -15.265625 C 0.835938 -15.382812 1.441406 -15.472656 2.050781 -15.535156 C 2.660156 -15.59375 3.269531 -15.625 3.882812 -15.625 Z M 3.882812 -15.625 " fill-opacity="1" fill-rule="nonzero"/></g><path fill="#ffffff" d="M 64.730469 35.566406 L 60.597656 35.566406 L 60.597656 38.503906 L 64.730469 38.503906 C 64.925781 38.503906 65.113281 38.464844 65.289062 38.390625 C 65.46875 38.316406 65.628906 38.210938 65.765625 38.074219 C 65.902344 37.933594 66.007812 37.777344 66.082031 37.597656 C 66.15625 37.417969 66.195312 37.230469 66.195312 37.035156 C 66.195312 36.839844 66.15625 36.652344 66.082031 36.472656 C 66.007812 36.292969 65.902344 36.132812 65.765625 35.996094 C 65.628906 35.859375 65.46875 35.75 65.289062 35.675781 C 65.113281 35.601562 64.925781 35.566406 64.730469 35.566406 Z M 64.730469 35.566406 " fill-opacity="1" fill-rule="nonzero"/><path fill="#ffffff" d="M 42.210938 53.792969 C 42.210938 54.082031 42.1875 54.363281 42.136719 54.644531 C 42.089844 54.921875 42.019531 55.195312 41.925781 55.460938 C 41.828125 55.722656 41.714844 55.976562 41.578125 56.210938 C 41.441406 56.449219 41.285156 56.667969 41.109375 56.871094 C 40.9375 57.074219 40.746094 57.253906 40.542969 57.414062 C 40.335938 57.570312 40.121094 57.707031 39.894531 57.816406 C 39.667969 57.925781 39.433594 58.007812 39.191406 58.0625 C 38.949219 58.117188 38.703125 58.148438 38.457031 58.148438 C 38.210938 58.148438 37.96875 58.117188 37.726562 58.0625 C 37.484375 58.007812 37.25 57.925781 37.023438 57.816406 C 36.796875 57.707031 36.578125 57.570312 36.375 57.414062 C 36.167969 57.253906 35.980469 57.074219 35.804688 56.871094 C 35.632812 56.667969 35.476562 56.449219 35.339844 56.210938 C 35.203125 55.976562 35.085938 55.722656 34.992188 55.460938 C 34.898438 55.195312 34.828125 54.921875 34.78125 54.644531 C 34.730469 54.363281 34.707031 54.082031 34.707031 53.792969 C 34.707031 53.507812 34.730469 53.226562 34.78125 52.945312 C 34.828125 52.664062 34.898438 52.394531 34.992188 52.128906 C 35.085938 51.863281 35.203125 51.613281 35.339844 51.375 C 35.476562 51.140625 35.632812 50.917969 35.804688 50.714844 C 35.980469 50.515625 36.167969 50.335938 36.375 50.175781 C 36.578125 50.015625 36.796875 49.882812 37.023438 49.773438 C 37.25 49.664062 37.484375 49.582031 37.726562 49.527344 C 37.96875 49.46875 38.210938 49.441406 38.457031 49.441406 C 38.703125 49.441406 38.949219 49.46875 39.191406 49.527344 C 39.433594 49.582031 39.667969 49.664062 39.894531 49.773438 C 40.121094 49.882812 40.335938 50.015625 40.542969 50.175781 C 40.746094 50.335938 40.9375 50.515625 41.109375 50.714844 C 41.285156 50.917969 41.441406 51.140625 41.578125 51.375 C 41.714844 51.613281 41.828125 51.863281 41.925781 52.128906 C 42.019531 52.394531 42.089844 52.664062 42.136719 52.945312 C 42.1875 53.226562 42.210938 53.507812 42.210938 53.792969 Z M 42.210938 53.792969 " fill-opacity="1" fill-rule="nonzero"/><path fill="#ffffff" d="M 59.886719 53.558594 C 59.886719 54.0625 59.804688 54.550781 59.636719 55.015625 C 59.46875 55.480469 59.234375 55.894531 58.925781 56.25 C 58.617188 56.605469 58.261719 56.882812 57.863281 57.074219 C 57.460938 57.269531 57.042969 57.363281 56.605469 57.363281 C 56.171875 57.363281 55.753906 57.269531 55.351562 57.074219 C 54.949219 56.882812 54.59375 56.605469 54.285156 56.25 C 53.980469 55.894531 53.742188 55.480469 53.574219 55.015625 C 53.410156 54.550781 53.328125 54.0625 53.328125 53.558594 C 53.328125 53.054688 53.410156 52.570312 53.574219 52.105469 C 53.742188 51.636719 53.980469 51.226562 54.285156 50.871094 C 54.59375 50.511719 54.949219 50.238281 55.351562 50.046875 C 55.753906 49.851562 56.171875 49.753906 56.605469 49.753906 C 57.042969 49.753906 57.460938 49.851562 57.863281 50.042969 C 58.261719 50.238281 58.617188 50.511719 58.925781 50.871094 C 59.234375 51.226562 59.46875 51.636719 59.636719 52.105469 C 59.804688 52.570312 59.886719 53.054688 59.886719 53.558594 Z M 59.886719 53.558594 " fill-opacity="1" fill-rule="nonzero"/><path fill="#ffffff" d="M 65.464844 29.886719 C 65.464844 29.695312 65.425781 29.507812 65.351562 29.328125 C 65.277344 29.144531 65.171875 28.988281 65.035156 28.851562 C 64.894531 28.710938 64.738281 28.605469 64.558594 28.53125 C 64.378906 28.457031 64.191406 28.417969 64 28.417969 L 60.390625 28.417969 L 60.390625 31.359375 L 64 31.359375 C 64.191406 31.359375 64.378906 31.320312 64.558594 31.246094 C 64.738281 31.171875 64.898438 31.066406 65.035156 30.929688 C 65.171875 30.789062 65.277344 30.632812 65.351562 30.449219 C 65.425781 30.269531 65.464844 30.082031 65.464844 29.886719 Z M 65.464844 29.886719 " fill-opacity="1" fill-rule="nonzero"/><g clip-path="url(#85a448438c)"><path fill="#ffffff" d="M 77.542969 39.109375 L 81.058594 2.03125 L 8.941406 14.390625 L 14.214844 37.34375 L 0.144531 37.34375 L 14.214844 79.71875 L 47.640625 74.421875 L 47.640625 86.78125 L 84.578125 70.890625 L 89.855469 39.109375 Z M 56.105469 24.820312 C 56.105469 24.820312 64.515625 24.15625 66.570312 24.28125 C 66.859375 24.261719 67.144531 24.269531 67.433594 24.3125 C 67.71875 24.351562 67.996094 24.425781 68.269531 24.523438 C 68.539062 24.625 68.800781 24.753906 69.042969 24.90625 C 69.289062 25.0625 69.511719 25.242188 69.71875 25.445312 C 69.925781 25.648438 70.109375 25.871094 70.269531 26.113281 C 70.429688 26.355469 70.558594 26.613281 70.664062 26.882812 C 70.769531 27.15625 70.847656 27.433594 70.890625 27.71875 C 70.9375 28.007812 70.953125 28.292969 70.941406 28.585938 C 70.976562 29.484375 70.804688 30.34375 70.425781 31.164062 C 70.050781 31.980469 69.503906 32.667969 68.796875 33.21875 C 69.210938 33.445312 69.582031 33.726562 69.914062 34.058594 C 70.246094 34.394531 70.523438 34.765625 70.746094 35.183594 C 70.96875 35.597656 71.128906 36.035156 71.226562 36.496094 C 71.320312 36.960938 71.351562 37.425781 71.3125 37.894531 C 71.269531 41.460938 67.351562 42.210938 67.351562 42.210938 L 56.105469 42.210938 Z M 42.460938 25.976562 L 54.292969 25.066406 L 54.292969 29.125 L 46.5 29.371094 L 46.5 31.234375 L 53.382812 31.234375 L 53.382812 35.824219 L 46.414062 35.824219 L 46.414062 38.144531 L 54.289062 38.144531 L 54.289062 42.199219 L 42.457031 41.824219 Z M 24.277344 26.972656 L 25.949219 35.351562 L 28.179688 26.734375 L 32.324219 26.628906 L 34.488281 35.351562 L 36.777344 25.972656 L 41.167969 25.972656 L 37.085938 41.304688 L 32.316406 41.304688 L 30.335938 33.636719 L 28.179688 41.308594 L 23.171875 41.308594 L 19.523438 26.972656 Z M 29.183594 49.730469 L 24.277344 49.628906 L 24.277344 62.890625 L 19.125 63.179688 L 19.125 49.519531 L 13.3125 49.402344 L 13.3125 44.40625 L 29.183594 45.054688 Z M 38.457031 63.007812 C 37.855469 63.007812 37.257812 62.949219 36.667969 62.828125 C 36.074219 62.710938 35.503906 62.535156 34.945312 62.304688 C 34.386719 62.074219 33.859375 61.789062 33.359375 61.453125 C 32.855469 61.117188 32.394531 60.734375 31.96875 60.308594 C 31.539062 59.878906 31.160156 59.414062 30.824219 58.910156 C 30.492188 58.410156 30.207031 57.878906 29.976562 57.320312 C 29.746094 56.757812 29.570312 56.183594 29.453125 55.589844 C 29.335938 54.996094 29.277344 54.398438 29.277344 53.792969 C 29.277344 53.1875 29.335938 52.589844 29.453125 51.996094 C 29.570312 51.402344 29.746094 50.824219 29.976562 50.265625 C 30.207031 49.707031 30.488281 49.175781 30.824219 48.675781 C 31.160156 48.171875 31.539062 47.707031 31.964844 47.277344 C 32.390625 46.851562 32.855469 46.46875 33.355469 46.132812 C 33.855469 45.796875 34.386719 45.511719 34.941406 45.28125 C 35.5 45.046875 36.074219 44.875 36.664062 44.753906 C 37.253906 44.636719 37.851562 44.578125 38.453125 44.578125 C 39.058594 44.578125 39.65625 44.636719 40.246094 44.753906 C 40.835938 44.871094 41.410156 45.046875 41.96875 45.277344 C 42.523438 45.507812 43.054688 45.792969 43.554688 46.128906 C 44.054688 46.464844 44.519531 46.84375 44.945312 47.273438 C 45.375 47.699219 45.753906 48.167969 46.089844 48.667969 C 46.425781 49.171875 46.707031 49.703125 46.9375 50.261719 C 47.167969 50.820312 47.34375 51.394531 47.460938 51.988281 C 47.578125 52.582031 47.636719 53.183594 47.640625 53.785156 C 47.640625 54.390625 47.582031 54.992188 47.464844 55.585938 C 47.347656 56.179688 47.171875 56.753906 46.941406 57.316406 C 46.710938 57.875 46.429688 58.40625 46.09375 58.910156 C 45.757812 59.414062 45.378906 59.878906 44.953125 60.304688 C 44.527344 60.734375 44.0625 61.117188 43.5625 61.453125 C 43.058594 61.789062 42.53125 62.074219 41.972656 62.304688 C 41.414062 62.535156 40.839844 62.710938 40.25 62.832031 C 39.660156 62.949219 39.0625 63.007812 38.457031 63.007812 Z M 56.605469 61.617188 C 56.078125 61.617188 55.558594 61.566406 55.039062 61.460938 C 54.523438 61.359375 54.019531 61.207031 53.535156 61.003906 C 53.046875 60.804688 52.585938 60.554688 52.144531 60.261719 C 51.707031 59.96875 51.300781 59.632812 50.929688 59.261719 C 50.554688 58.886719 50.222656 58.480469 49.929688 58.039062 C 49.636719 57.601562 49.386719 57.136719 49.1875 56.648438 C 48.984375 56.160156 48.832031 55.65625 48.730469 55.136719 C 48.625 54.617188 48.574219 54.09375 48.574219 53.566406 C 48.574219 53.035156 48.625 52.511719 48.726562 51.992188 C 48.828125 51.472656 48.980469 50.96875 49.183594 50.480469 C 49.382812 49.992188 49.632812 49.527344 49.921875 49.085938 C 50.214844 48.648438 50.550781 48.242188 50.921875 47.867188 C 51.292969 47.492188 51.699219 47.15625 52.136719 46.863281 C 52.574219 46.570312 53.039062 46.320312 53.523438 46.117188 C 54.011719 45.917969 54.511719 45.761719 55.03125 45.660156 C 55.546875 45.554688 56.070312 45.503906 56.597656 45.503906 C 57.125 45.503906 57.644531 45.554688 58.164062 45.660156 C 58.679688 45.761719 59.179688 45.914062 59.667969 46.117188 C 60.15625 46.320312 60.617188 46.566406 61.054688 46.859375 C 61.496094 47.15625 61.898438 47.488281 62.273438 47.863281 C 62.644531 48.238281 62.976562 48.644531 63.269531 49.082031 C 63.5625 49.523438 63.8125 49.988281 64.011719 50.476562 C 64.214844 50.964844 64.367188 51.46875 64.46875 51.988281 C 64.574219 52.507812 64.625 53.03125 64.625 53.558594 C 64.625 54.089844 64.574219 54.613281 64.46875 55.128906 C 64.367188 55.648438 64.214844 56.152344 64.015625 56.640625 C 63.8125 57.128906 63.566406 57.59375 63.273438 58.03125 C 62.980469 58.472656 62.648438 58.878906 62.277344 59.253906 C 61.902344 59.625 61.5 59.960938 61.0625 60.253906 C 60.625 60.546875 60.160156 60.796875 59.675781 61 C 59.1875 61.203125 58.6875 61.355469 58.171875 61.460938 C 57.65625 61.5625 57.132812 61.613281 56.605469 61.617188 Z M 78.882812 60.164062 L 74.9375 60.164062 L 70.328125 53.824219 L 70.328125 60.753906 L 65.746094 60.753906 L 65.746094 45.933594 L 70.320312 45.933594 L 75.125 53.570312 L 75.125 46.140625 L 79.535156 46.140625 Z M 78.882812 60.164062 " fill-opacity="1" fill-rule="nonzero"/></g></svg>