<svg xmlns="http://www.w3.org/2000/svg" xmlns:xlink="http://www.w3.org/1999/xlink" width="120" zoomAndPan="magnify" viewBox="0 0 90 89.999999" height="120" preserveAspectRatio="xMidYMid meet" version="1.0"><defs><clipPath id="9d4ed43a06"><path d="M 2 3.601562 L 88 3.601562 L 88 86 L 2 86 Z M 2 3.601562 " clip-rule="nonzero"/></clipPath></defs><g clip-path="url(#9d4ed43a06)"><path fill="#0072ff" d="M 58.375 85.644531 C 59.160156 85.386719 59.9375 85.101562 60.703125 84.796875 C 61.472656 84.488281 62.230469 84.160156 62.976562 83.8125 C 63.726562 83.460938 64.464844 83.089844 65.191406 82.695312 C 65.914062 82.300781 66.628906 81.886719 67.332031 81.449219 C 68.035156 81.015625 68.722656 80.558594 69.398438 80.082031 C 70.070312 79.609375 70.730469 79.113281 71.378906 78.597656 C 72.023438 78.085938 72.652344 77.550781 73.269531 77 C 73.882812 76.449219 74.480469 75.878906 75.058594 75.292969 C 75.640625 74.707031 76.203125 74.105469 76.75 73.484375 C 77.292969 72.867188 77.820312 72.230469 78.328125 71.582031 C 78.835938 70.929688 79.324219 70.265625 79.792969 69.585938 C 80.261719 68.910156 80.710938 68.21875 81.136719 67.511719 C 81.566406 66.808594 81.972656 66.089844 82.359375 65.359375 C 82.742188 64.632812 83.109375 63.894531 83.449219 63.144531 C 83.792969 62.394531 84.109375 61.632812 84.410156 60.863281 C 84.707031 60.097656 84.980469 59.320312 85.230469 58.535156 C 85.484375 57.75 85.710938 56.957031 85.914062 56.160156 C 86.121094 55.363281 86.300781 54.558594 86.457031 53.75 C 86.617188 52.941406 86.75 52.128906 86.859375 51.3125 C 86.96875 50.496094 87.054688 49.675781 87.113281 48.855469 C 87.175781 48.03125 87.210938 47.210938 87.222656 46.386719 C 87.238281 45.5625 87.226562 44.738281 87.1875 43.914062 C 87.152344 43.09375 87.09375 42.269531 87.007812 41.453125 C 86.925781 40.632812 86.816406 39.816406 86.683594 39.003906 C 86.550781 38.191406 86.394531 37.382812 86.214844 36.578125 C 86.035156 35.773438 85.832031 34.976562 85.601562 34.183594 C 85.375 33.390625 85.125 32.605469 84.851562 31.828125 C 84.578125 31.050781 84.28125 30.28125 83.964844 29.523438 C 83.644531 28.761719 83.304688 28.011719 82.941406 27.273438 C 82.578125 26.53125 82.191406 25.804688 81.785156 25.085938 C 81.378906 24.367188 80.953125 23.664062 80.503906 22.96875 C 80.058594 22.277344 79.589844 21.597656 79.101562 20.933594 C 78.613281 20.269531 78.109375 19.617188 77.582031 18.980469 C 77.054688 18.347656 76.511719 17.726562 75.949219 17.125 C 75.386719 16.519531 74.804688 15.933594 74.210938 15.363281 C 73.613281 14.792969 73 14.242188 72.367188 13.707031 C 71.738281 13.175781 71.09375 12.660156 70.433594 12.164062 C 69.773438 11.667969 69.101562 11.191406 68.410156 10.734375 C 67.722656 10.277344 67.023438 9.839844 66.308594 9.425781 C 65.59375 9.011719 64.871094 8.617188 64.132812 8.242188 C 63.394531 7.871094 62.648438 7.519531 61.890625 7.191406 C 61.132812 6.859375 60.363281 6.554688 59.589844 6.269531 C 58.8125 5.984375 58.03125 5.722656 57.238281 5.484375 C 56.445312 5.246094 55.648438 5.03125 54.84375 4.839844 C 54.039062 4.648438 53.230469 4.480469 52.417969 4.335938 C 51.605469 4.191406 50.785156 4.070312 49.964844 3.972656 C 49.144531 3.875 48.320312 3.804688 47.496094 3.757812 C 46.671875 3.707031 45.84375 3.683594 45.019531 3.683594 C 44.191406 3.683594 43.363281 3.707031 42.539062 3.757812 C 41.714844 3.804688 40.890625 3.875 40.070312 3.972656 C 39.25 4.070312 38.429688 4.191406 37.617188 4.335938 C 36.804688 4.480469 35.996094 4.648438 35.191406 4.839844 C 34.386719 5.03125 33.589844 5.246094 32.796875 5.484375 C 32.007812 5.722656 31.222656 5.984375 30.445312 6.269531 C 29.671875 6.554688 28.902344 6.859375 28.144531 7.191406 C 27.386719 7.519531 26.640625 7.871094 25.902344 8.242188 C 25.164062 8.617188 24.441406 9.011719 23.726562 9.425781 C 23.011719 9.839844 22.3125 10.277344 21.625 10.734375 C 20.933594 11.191406 20.261719 11.667969 19.601562 12.164062 C 18.941406 12.660156 18.296875 13.175781 17.667969 13.707031 C 17.035156 14.242188 16.421875 14.792969 15.824219 15.363281 C 15.230469 15.933594 14.648438 16.519531 14.085938 17.125 C 13.523438 17.726562 12.980469 18.347656 12.453125 18.980469 C 11.925781 19.617188 11.421875 20.269531 10.933594 20.933594 C 10.445312 21.597656 9.976562 22.277344 9.53125 22.96875 C 9.082031 23.664062 8.65625 24.367188 8.25 25.085938 C 7.84375 25.804688 7.457031 26.53125 7.09375 27.273438 C 6.730469 28.011719 6.390625 28.761719 6.070312 29.523438 C 5.753906 30.28125 5.457031 31.050781 5.183594 31.828125 C 4.910156 32.605469 4.660156 33.390625 4.433594 34.183594 C 4.203125 34.976562 4 35.773438 3.820312 36.578125 C 3.640625 37.382812 3.484375 38.191406 3.351562 39.003906 C 3.21875 39.816406 3.109375 40.632812 3.027344 41.453125 C 2.941406 42.269531 2.882812 43.09375 2.847656 43.914062 C 2.808594 44.738281 2.796875 45.5625 2.8125 46.386719 C 2.824219 47.210938 2.859375 48.03125 2.921875 48.855469 C 2.980469 49.675781 3.066406 50.496094 3.175781 51.3125 C 3.285156 52.128906 3.417969 52.941406 3.578125 53.75 C 3.734375 54.558594 3.914062 55.363281 4.121094 56.160156 C 4.324219 56.957031 4.554688 57.75 4.804688 58.535156 C 5.054688 59.320312 5.328125 60.097656 5.628906 60.863281 C 5.925781 61.632812 6.242188 62.394531 6.585938 63.144531 C 6.925781 63.894531 7.292969 64.632812 7.675781 65.359375 C 8.0625 66.089844 8.46875 66.808594 8.898438 67.511719 C 9.324219 68.21875 9.773438 68.910156 10.242188 69.585938 C 10.710938 70.265625 11.199219 70.929688 11.707031 71.582031 C 12.214844 72.230469 12.742188 72.867188 13.285156 73.484375 C 13.832031 74.105469 14.394531 74.707031 14.976562 75.292969 C 15.554688 75.878906 16.152344 76.449219 16.765625 77 C 17.382812 77.550781 18.011719 78.085938 18.65625 78.597656 C 19.304688 79.113281 19.964844 79.609375 20.636719 80.082031 C 21.3125 80.558594 22 81.015625 22.703125 81.449219 C 23.40625 81.886719 24.121094 82.300781 24.847656 82.695312 C 25.570312 83.089844 26.308594 83.460938 27.058594 83.8125 C 27.804688 84.160156 28.5625 84.488281 29.332031 84.796875 C 30.097656 85.101562 30.875 85.386719 31.660156 85.644531 C 33.777344 86.03125 34.535156 84.730469 34.535156 83.605469 C 34.535156 82.851562 34.535156 81.164062 34.535156 78.875 C 34.53125 78.574219 34.464844 78.285156 34.335938 78.011719 C 34.207031 77.738281 34.027344 77.503906 33.800781 77.304688 C 33.570312 77.109375 33.3125 76.964844 33.019531 76.875 C 32.730469 76.789062 32.4375 76.765625 32.136719 76.800781 C 22.429688 77.839844 20.292969 70.753906 20.292969 70.753906 C 18.371094 65.882812 15.601562 64.578125 15.601562 64.578125 C 11.769531 61.960938 15.882812 62.011719 15.882812 62.011719 C 17.242188 62.199219 18.488281 62.675781 19.621094 63.441406 C 20.757812 64.210938 21.664062 65.1875 22.339844 66.375 C 22.589844 66.851562 22.882812 67.304688 23.214844 67.730469 C 23.550781 68.15625 23.921875 68.546875 24.328125 68.902344 C 24.738281 69.257812 25.175781 69.574219 25.640625 69.847656 C 26.109375 70.121094 26.597656 70.351562 27.109375 70.53125 C 27.617188 70.714844 28.140625 70.847656 28.675781 70.933594 C 29.210938 71.019531 29.75 71.054688 30.292969 71.039062 C 30.835938 71.023438 31.371094 70.957031 31.898438 70.839844 C 32.429688 70.722656 32.941406 70.558594 33.441406 70.347656 C 33.792969 70.222656 34.089844 70.015625 34.335938 69.734375 C 34.582031 69.453125 34.742188 69.128906 34.816406 68.765625 C 34.972656 68.085938 35.1875 67.429688 35.46875 66.796875 C 35.542969 66.648438 35.597656 66.496094 35.632812 66.335938 C 35.671875 66.175781 35.6875 66.011719 35.6875 65.847656 C 35.6875 65.683594 35.667969 65.523438 35.632812 65.363281 C 35.59375 65.203125 35.539062 65.050781 35.46875 64.902344 C 35.394531 64.753906 35.308594 64.617188 35.203125 64.488281 C 35.101562 64.363281 34.984375 64.246094 34.855469 64.148438 C 34.722656 64.046875 34.585938 63.960938 34.4375 63.890625 C 34.285156 63.820312 34.132812 63.769531 33.96875 63.734375 C 25.730469 62.136719 18.089844 57.632812 18.089844 43.371094 C 18.0625 41.632812 18.308594 39.933594 18.828125 38.269531 C 19.347656 36.609375 20.113281 35.066406 21.125 33.648438 C 21.496094 33.144531 21.75 32.585938 21.882812 31.972656 C 22.015625 31.359375 22.015625 30.746094 21.882812 30.132812 C 21.484375 28.140625 21.484375 26.144531 21.882812 24.152344 C 21.933594 23.886719 22.015625 23.632812 22.121094 23.382812 C 22.226562 23.136719 22.359375 22.902344 22.511719 22.679688 C 22.667969 22.460938 22.84375 22.257812 23.042969 22.074219 C 23.242188 21.890625 23.457031 21.730469 23.6875 21.589844 C 23.917969 21.449219 24.164062 21.335938 24.417969 21.25 C 24.675781 21.160156 24.9375 21.101562 25.207031 21.066406 C 25.472656 21.03125 25.742188 21.027344 26.011719 21.050781 C 26.28125 21.070312 26.546875 21.121094 26.804688 21.199219 C 28.976562 21.90625 31.015625 22.878906 32.929688 24.117188 C 34 24.757812 35.140625 24.933594 36.351562 24.644531 C 42.148438 23.355469 47.941406 23.355469 53.734375 24.644531 C 54.949219 24.933594 56.089844 24.757812 57.160156 24.117188 C 59.019531 22.914062 61.003906 21.960938 63.105469 21.25 C 63.378906 21.167969 63.65625 21.117188 63.941406 21.09375 C 64.226562 21.070312 64.507812 21.078125 64.792969 21.117188 C 65.074219 21.152344 65.351562 21.222656 65.617188 21.320312 C 65.886719 21.414062 66.140625 21.539062 66.382812 21.691406 C 66.625 21.84375 66.847656 22.019531 67.050781 22.21875 C 67.253906 22.417969 67.429688 22.636719 67.585938 22.875 C 67.742188 23.113281 67.871094 23.367188 67.972656 23.632812 C 68.074219 23.898438 68.144531 24.171875 68.1875 24.453125 C 68.554688 26.363281 68.554688 28.273438 68.1875 30.183594 C 68.054688 30.796875 68.054688 31.410156 68.1875 32.023438 C 68.320312 32.636719 68.574219 33.195312 68.945312 33.703125 C 69.957031 35.121094 70.722656 36.660156 71.242188 38.324219 C 71.761719 39.984375 72.007812 41.683594 71.980469 43.425781 C 71.980469 57.722656 64.324219 62.1875 56.101562 63.769531 C 55.941406 63.800781 55.785156 63.847656 55.636719 63.914062 C 55.488281 63.980469 55.347656 64.0625 55.21875 64.160156 C 55.089844 64.253906 54.972656 64.367188 54.867188 64.488281 C 54.761719 64.613281 54.671875 64.746094 54.597656 64.890625 C 54.523438 65.035156 54.46875 65.1875 54.429688 65.34375 C 54.390625 65.5 54.367188 65.660156 54.363281 65.820312 C 54.363281 65.984375 54.378906 66.144531 54.410156 66.300781 C 54.445312 66.460938 54.496094 66.613281 54.566406 66.761719 C 55.300781 68.441406 55.652344 70.199219 55.625 72.035156 L 55.625 83.625 C 55.625 83.625 56.222656 85.996094 58.375 85.644531 Z M 58.375 85.644531 " fill-opacity="1" fill-rule="nonzero"/></g></svg>