<svg xmlns="http://www.w3.org/2000/svg" xmlns:xlink="http://www.w3.org/1999/xlink" width="120" zoomAndPan="magnify" viewBox="0 0 90 89.999999" height="120" preserveAspectRatio="xMidYMid meet" version="1.0"><path fill="#7289da" d="M 13.5 0 L 76.5 0 C 77.386719 0 78.265625 0.0859375 79.132812 0.257812 C 80.003906 0.433594 80.847656 0.6875 81.667969 1.027344 C 82.484375 1.367188 83.261719 1.78125 84 2.273438 C 84.738281 2.769531 85.417969 3.328125 86.046875 3.953125 C 86.671875 4.582031 87.230469 5.261719 87.726562 6 C 88.21875 6.738281 88.632812 7.515625 88.972656 8.332031 C 89.3125 9.152344 89.566406 9.996094 89.742188 10.867188 C 89.914062 11.734375 90 12.613281 90 13.5 L 90 76.5 C 90 77.386719 89.914062 78.265625 89.742188 79.132812 C 89.566406 80.003906 89.3125 80.847656 88.972656 81.667969 C 88.632812 82.484375 88.21875 83.261719 87.726562 84 C 87.230469 84.738281 86.671875 85.417969 86.046875 86.046875 C 85.417969 86.671875 84.738281 87.230469 84 87.726562 C 83.261719 88.21875 82.484375 88.632812 81.667969 88.972656 C 80.847656 89.3125 80.003906 89.566406 79.132812 89.742188 C 78.265625 89.914062 77.386719 90 76.5 90 L 13.5 90 C 12.613281 90 11.734375 89.914062 10.867188 89.742188 C 9.996094 89.566406 9.152344 89.3125 8.332031 88.972656 C 7.515625 88.632812 6.738281 88.21875 6 87.726562 C 5.261719 87.230469 4.582031 86.671875 3.953125 86.046875 C 3.328125 85.417969 2.769531 84.738281 2.273438 84 C 1.78125 83.261719 1.367188 82.484375 1.027344 81.667969 C 0.6875 80.847656 0.433594 80.003906 0.257812 79.132812 C 0.0859375 78.265625 0 77.386719 0 76.5 L 0 13.5 C 0 12.613281 0.0859375 11.734375 0.257812 10.867188 C 0.433594 9.996094 0.6875 9.152344 1.027344 8.332031 C 1.367188 7.515625 1.78125 6.738281 2.273438 6 C 2.769531 5.261719 3.328125 4.582031 3.953125 3.953125 C 4.582031 3.328125 5.261719 2.769531 6 2.273438 C 6.738281 1.78125 7.515625 1.367188 8.332031 1.027344 C 9.152344 0.6875 9.996094 0.433594 10.867188 0.257812 C 11.734375 0.0859375 12.613281 0 13.5 0 Z M 13.5 0 " fill-opacity="1" fill-rule="nonzero"/><path fill="#ffffff" d="M 60.820312 68.90625 L 57.128906 64.511719 C 64.335938 62.578125 67.148438 57.65625 67.148438 57.65625 C 58.007812 66.269531 33.046875 66.621094 23.378906 57.65625 C 23.378906 57.65625 25.839844 62.226562 33.222656 64.511719 L 29.179688 68.90625 C 16.875 68.730469 12.128906 60.46875 12.128906 60.46875 C 12.128906 42.1875 20.214844 27.597656 20.214844 27.597656 C 28.476562 21.796875 36.035156 21.796875 36.035156 21.796875 L 36.5625 22.5 C 26.367188 25.3125 21.972656 29.882812 21.972656 29.882812 C 33.925781 21.796875 58.535156 22.5 68.203125 29.882812 C 68.378906 29.707031 62.402344 24.960938 53.085938 22.5 L 53.964844 21.796875 C 53.964844 21.796875 61.523438 21.796875 69.785156 27.597656 C 78.046875 33.398438 77.871094 42.1875 77.871094 60.46875 C 77.871094 60.46875 73.125 68.730469 60.820312 68.90625 Z M 60.820312 68.90625 " fill-opacity="1" fill-rule="nonzero"/><path fill="#7289da" d="M 40.253906 49.042969 C 40.253906 49.445312 40.214844 49.847656 40.140625 50.242188 C 40.066406 50.640625 39.957031 51.023438 39.8125 51.398438 C 39.667969 51.769531 39.488281 52.125 39.277344 52.460938 C 39.066406 52.796875 38.824219 53.109375 38.554688 53.394531 C 38.285156 53.679688 37.992188 53.933594 37.675781 54.160156 C 37.359375 54.382812 37.023438 54.574219 36.671875 54.726562 C 36.320312 54.882812 35.957031 55 35.585938 55.078125 C 35.210938 55.15625 34.835938 55.195312 34.453125 55.195312 C 34.070312 55.195312 33.695312 55.15625 33.320312 55.078125 C 32.949219 55 32.585938 54.882812 32.234375 54.726562 C 31.882812 54.574219 31.546875 54.382812 31.230469 54.160156 C 30.914062 53.933594 30.621094 53.679688 30.351562 53.394531 C 30.082031 53.109375 29.839844 52.796875 29.628906 52.460938 C 29.417969 52.125 29.238281 51.769531 29.09375 51.398438 C 28.949219 51.023438 28.839844 50.640625 28.765625 50.242188 C 28.691406 49.847656 28.652344 49.445312 28.652344 49.042969 C 28.652344 48.640625 28.691406 48.238281 28.765625 47.84375 C 28.839844 47.445312 28.949219 47.0625 29.09375 46.6875 C 29.238281 46.316406 29.417969 45.960938 29.628906 45.625 C 29.839844 45.289062 30.082031 44.976562 30.351562 44.691406 C 30.621094 44.40625 30.914062 44.152344 31.230469 43.925781 C 31.546875 43.703125 31.882812 43.511719 32.234375 43.359375 C 32.585938 43.203125 32.949219 43.085938 33.320312 43.007812 C 33.695312 42.929688 34.070312 42.890625 34.453125 42.890625 C 34.835938 42.890625 35.210938 42.929688 35.585938 43.007812 C 35.957031 43.085938 36.320312 43.203125 36.671875 43.359375 C 37.023438 43.511719 37.359375 43.703125 37.675781 43.925781 C 37.992188 44.152344 38.285156 44.40625 38.554688 44.691406 C 38.824219 44.976562 39.066406 45.289062 39.277344 45.625 C 39.488281 45.960938 39.667969 46.316406 39.8125 46.6875 C 39.957031 47.0625 40.066406 47.445312 40.140625 47.84375 C 40.214844 48.238281 40.253906 48.640625 40.253906 49.042969 Z M 40.253906 49.042969 " fill-opacity="1" fill-rule="nonzero"/><path fill="#7289da" d="M 60.644531 49.042969 C 60.644531 49.445312 60.605469 49.847656 60.53125 50.242188 C 60.457031 50.640625 60.347656 51.023438 60.203125 51.398438 C 60.058594 51.769531 59.878906 52.125 59.667969 52.460938 C 59.457031 52.796875 59.214844 53.109375 58.945312 53.394531 C 58.675781 53.679688 58.382812 53.933594 58.066406 54.160156 C 57.75 54.382812 57.414062 54.574219 57.0625 54.726562 C 56.710938 54.882812 56.347656 55 55.976562 55.078125 C 55.601562 55.15625 55.226562 55.195312 54.84375 55.195312 C 54.460938 55.195312 54.085938 55.15625 53.710938 55.078125 C 53.339844 55 52.976562 54.882812 52.625 54.726562 C 52.273438 54.574219 51.9375 54.382812 51.621094 54.160156 C 51.304688 53.933594 51.011719 53.679688 50.742188 53.394531 C 50.472656 53.109375 50.230469 52.796875 50.019531 52.460938 C 49.808594 52.125 49.628906 51.769531 49.484375 51.398438 C 49.339844 51.023438 49.230469 50.640625 49.15625 50.242188 C 49.082031 49.847656 49.042969 49.445312 49.042969 49.042969 C 49.042969 48.640625 49.082031 48.238281 49.15625 47.84375 C 49.230469 47.445312 49.339844 47.0625 49.484375 46.6875 C 49.628906 46.316406 49.808594 45.960938 50.019531 45.625 C 50.230469 45.289062 50.472656 44.976562 50.742188 44.691406 C 51.011719 44.40625 51.304688 44.152344 51.621094 43.925781 C 51.9375 43.703125 52.273438 43.511719 52.625 43.359375 C 52.976562 43.203125 53.339844 43.085938 53.710938 43.007812 C 54.085938 42.929688 54.460938 42.890625 54.84375 42.890625 C 55.226562 42.890625 55.601562 42.929688 55.976562 43.007812 C 56.347656 43.085938 56.710938 43.203125 57.0625 43.359375 C 57.414062 43.511719 57.75 43.703125 58.066406 43.925781 C 58.382812 44.152344 58.675781 44.40625 58.945312 44.691406 C 59.214844 44.976562 59.457031 45.289062 59.667969 45.625 C 59.878906 45.960938 60.058594 46.316406 60.203125 46.6875 C 60.347656 47.0625 60.457031 47.445312 60.53125 47.84375 C 60.605469 48.238281 60.644531 48.640625 60.644531 49.042969 Z M 60.644531 49.042969 " fill-opacity="1" fill-rule="nonzero"/></svg>