<svg xmlns="http://www.w3.org/2000/svg" xmlns:xlink="http://www.w3.org/1999/xlink" width="120" zoomAndPan="magnify" viewBox="0 0 90 89.999999" height="120" preserveAspectRatio="xMidYMid meet" version="1.0"><path fill="#ff6600" d="M 90 76.535156 C 90 77.421875 89.917969 78.296875 89.746094 79.164062 C 89.574219 80.03125 89.316406 80.875 88.980469 81.691406 C 88.644531 82.507812 88.226562 83.285156 87.738281 84.019531 C 87.246094 84.757812 86.6875 85.4375 86.0625 86.0625 C 85.4375 86.6875 84.757812 87.246094 84.019531 87.738281 C 83.285156 88.226562 82.507812 88.644531 81.691406 88.980469 C 80.875 89.316406 80.03125 89.574219 79.164062 89.746094 C 78.296875 89.917969 77.421875 90 76.535156 90 L 13.5 90 C 6.042969 90 0 84.023438 0 76.535156 L 0 13.5 C 0 6.046875 6.042969 0 13.5 0 L 76.535156 0 C 77.421875 0.00390625 78.296875 0.0898438 79.164062 0.265625 C 80.03125 0.441406 80.875 0.699219 81.691406 1.039062 C 82.507812 1.378906 83.285156 1.796875 84.019531 2.289062 C 84.753906 2.78125 85.433594 3.339844 86.058594 3.96875 C 86.683594 4.59375 87.242188 5.273438 87.734375 6.011719 C 88.222656 6.746094 88.636719 7.523438 88.976562 8.34375 C 89.3125 9.160156 89.570312 10.003906 89.742188 10.871094 C 89.914062 11.738281 90 12.613281 90 13.5 L 90 76.535156 " fill-opacity="1" fill-rule="nonzero"/><path fill="#ffffff" d="M 35.367188 16.976562 C 25.429688 16.976562 17.375 25.035156 17.367188 34.976562 L 17.367188 54.726562 C 17.367188 55.316406 17.398438 55.90625 17.453125 56.492188 C 17.511719 57.078125 17.597656 57.660156 17.714844 58.238281 C 17.828125 58.816406 17.972656 59.386719 18.144531 59.949219 C 18.316406 60.515625 18.511719 61.070312 18.738281 61.613281 C 18.964844 62.15625 19.21875 62.691406 19.496094 63.210938 C 19.773438 63.730469 20.074219 64.234375 20.402344 64.722656 C 20.730469 65.214844 21.082031 65.6875 21.457031 66.140625 C 21.828125 66.597656 22.226562 67.035156 22.640625 67.449219 C 23.058594 67.867188 23.496094 68.261719 23.949219 68.636719 C 24.40625 69.011719 24.878906 69.359375 25.367188 69.6875 C 25.859375 70.015625 26.363281 70.316406 26.882812 70.59375 C 27.402344 70.875 27.9375 71.125 28.480469 71.351562 C 29.023438 71.574219 29.578125 71.773438 30.144531 71.945312 C 30.707031 72.117188 31.277344 72.257812 31.855469 72.375 C 32.433594 72.488281 33.015625 72.574219 33.601562 72.632812 C 34.191406 72.691406 34.777344 72.71875 35.367188 72.71875 L 54.742188 72.71875 C 64.683594 72.71875 72.722656 64.671875 72.722656 54.726562 L 72.722656 41.96875 C 72.722656 39.980469 71.128906 38.367188 69.140625 38.367188 L 66.039062 38.367188 C 64.136719 38.367188 62.589844 36.882812 62.457031 35.019531 L 62.4375 34.980469 C 62.4375 34.390625 62.410156 33.800781 62.351562 33.214844 C 62.292969 32.628906 62.207031 32.046875 62.089844 31.46875 C 61.976562 30.890625 61.832031 30.316406 61.664062 29.753906 C 61.492188 29.191406 61.292969 28.636719 61.066406 28.089844 C 60.839844 27.546875 60.589844 27.015625 60.3125 26.492188 C 60.035156 25.972656 59.730469 25.46875 59.402344 24.980469 C 59.078125 24.488281 58.726562 24.015625 58.351562 23.558594 C 57.976562 23.105469 57.582031 22.667969 57.164062 22.25 C 56.75 21.835938 56.3125 21.4375 55.855469 21.066406 C 55.402344 20.691406 54.929688 20.339844 54.4375 20.011719 C 53.949219 19.683594 53.441406 19.382812 52.921875 19.105469 C 52.402344 18.828125 51.871094 18.574219 51.324219 18.347656 C 50.78125 18.125 50.226562 17.925781 49.664062 17.753906 C 49.097656 17.582031 48.527344 17.441406 47.949219 17.324219 C 47.371094 17.210938 46.789062 17.125 46.203125 17.066406 C 45.613281 17.007812 45.027344 16.980469 44.4375 16.980469 Z M 34.921875 31.578125 L 45.117188 31.578125 C 47.023438 31.578125 48.582031 33.125 48.582031 35.042969 C 48.578125 35.5 48.492188 35.941406 48.3125 36.367188 C 48.136719 36.789062 47.886719 37.164062 47.5625 37.488281 C 47.238281 37.8125 46.863281 38.0625 46.441406 38.238281 C 46.015625 38.414062 45.574219 38.503906 45.117188 38.507812 L 34.921875 38.507812 C 34.460938 38.503906 34.019531 38.414062 33.597656 38.238281 C 33.171875 38.0625 32.800781 37.8125 32.476562 37.488281 C 32.152344 37.164062 31.898438 36.789062 31.722656 36.367188 C 31.546875 35.941406 31.460938 35.5 31.457031 35.042969 C 31.457031 33.128906 33.011719 31.578125 34.921875 31.578125 Z M 34.898438 51.847656 L 55.355469 51.847656 C 57.164062 51.847656 58.640625 53.300781 58.640625 55.109375 C 58.640625 56.917969 57.164062 58.398438 55.355469 58.398438 L 34.898438 58.398438 C 33.09375 58.398438 31.636719 56.917969 31.636719 55.109375 C 31.636719 53.300781 33.089844 51.847656 34.898438 51.847656 Z M 34.898438 51.847656 " fill-opacity="1" fill-rule="nonzero"/></svg>