<svg xmlns="http://www.w3.org/2000/svg" xmlns:xlink="http://www.w3.org/1999/xlink" width="120" zoomAndPan="magnify" viewBox="0 0 90 89.999999" height="120" preserveAspectRatio="xMidYMid meet" version="1.0"><path fill="#000000" d="M 47.835938 1.675781 C 21.667969 0.00390625 0.00390625 21.667969 1.675781 47.835938 C 3.058594 69.46875 20.53125 86.941406 42.164062 88.324219 C 68.332031 89.996094 89.996094 68.332031 88.324219 42.164062 C 86.941406 20.53125 69.46875 3.058594 47.835938 1.675781 Z M 64.65625 66.542969 C 66.363281 60.675781 67.382812 53.929688 67.519531 46.667969 L 85.03125 46.667969 C 84.648438 55.976562 81.074219 64.46875 75.378906 71.089844 C 72.765625 69.261719 69.113281 67.710938 64.65625 66.542969 Z M 14.621094 71.089844 C 8.925781 64.46875 5.351562 55.976562 4.96875 46.667969 L 22.480469 46.667969 C 22.617188 53.929688 23.636719 60.675781 25.34375 66.542969 C 20.882812 67.714844 17.230469 69.261719 14.621094 71.089844 Z M 25.335938 23.488281 C 23.632812 29.347656 22.613281 36.085938 22.480469 43.332031 L 4.96875 43.332031 C 5.351562 34.066406 8.890625 25.613281 14.539062 19.003906 C 17.195312 20.804688 20.875 22.332031 25.335938 23.488281 Z M 43.332031 43.332031 L 25.820312 43.332031 C 25.960938 36.421875 26.988281 29.898438 28.667969 24.253906 C 33.183594 25.164062 38.1875 25.683594 43.332031 25.777344 Z M 43.332031 46.667969 L 43.332031 64.222656 C 38.175781 64.316406 33.171875 64.84375 28.675781 65.765625 C 26.992188 60.117188 25.964844 53.589844 25.820312 46.667969 Z M 46.667969 46.667969 L 64.179688 46.667969 C 64.039062 53.589844 63.007812 60.117188 61.324219 65.765625 C 56.824219 64.84375 51.824219 64.316406 46.667969 64.222656 Z M 46.667969 43.332031 L 46.667969 25.777344 C 51.8125 25.683594 56.816406 25.164062 61.332031 24.253906 C 63.011719 29.898438 64.039062 36.421875 64.179688 43.332031 Z M 46.667969 22.4375 L 46.667969 5.09375 C 52.152344 6.136719 57.0625 12.226562 60.277344 21.0625 C 56.082031 21.882812 51.441406 22.347656 46.667969 22.4375 Z M 43.332031 5.09375 L 43.332031 22.4375 C 38.558594 22.347656 33.917969 21.882812 29.722656 21.0625 C 32.9375 12.226562 37.847656 6.132812 43.332031 5.09375 Z M 43.332031 67.5625 L 43.332031 84.90625 C 37.847656 83.867188 32.945312 77.785156 29.726562 68.957031 C 33.910156 68.125 38.550781 67.652344 43.332031 67.5625 Z M 46.667969 84.90625 L 46.667969 67.5625 C 51.449219 67.652344 56.089844 68.125 60.273438 68.957031 C 57.054688 77.78125 52.152344 83.867188 46.667969 84.90625 Z M 67.519531 43.332031 C 67.386719 36.085938 66.367188 29.347656 64.667969 23.488281 C 69.125 22.328125 72.804688 20.804688 75.460938 19.003906 C 81.109375 25.613281 84.648438 34.066406 85.03125 43.332031 Z M 73.152344 16.511719 C 70.816406 17.996094 67.542969 19.300781 63.644531 20.300781 C 61.550781 14.375 58.707031 9.554688 55.355469 6.289062 C 62.171875 8.113281 68.273438 11.691406 73.152344 16.511719 Z M 26.355469 20.300781 C 22.457031 19.300781 19.183594 17.996094 16.847656 16.515625 C 21.726562 11.691406 27.832031 8.113281 34.648438 6.289062 C 31.292969 9.554688 28.449219 14.378906 26.355469 20.300781 Z M 16.933594 73.566406 C 19.21875 72.066406 22.464844 70.738281 26.363281 69.726562 C 28.457031 75.636719 31.300781 80.449219 34.644531 83.710938 C 27.867188 81.894531 21.796875 78.347656 16.933594 73.566406 Z M 63.636719 69.726562 C 67.535156 70.738281 70.78125 72.066406 73.066406 73.566406 C 68.203125 78.347656 62.132812 81.898438 55.355469 83.710938 C 58.699219 80.449219 61.539062 75.636719 63.636719 69.726562 Z M 63.636719 69.726562 " fill-opacity="1" fill-rule="nonzero"/></svg>