<svg xmlns="http://www.w3.org/2000/svg" xmlns:xlink="http://www.w3.org/1999/xlink" width="120" zoomAndPan="magnify" viewBox="0 0 90 89.999999" height="120" preserveAspectRatio="xMidYMid meet" version="1.0"><defs><clipPath id="9390451879"><path d="M 0.777344 0 L 89.277344 0 L 89.277344 90 L 0.777344 90 Z M 0.777344 0 " clip-rule="nonzero"/></clipPath></defs><g clip-path="url(#9390451879)"><path fill="#11100e" d="M 67.242188 66.050781 C 67.996094 63.132812 68.570312 60.136719 68.945312 57.066406 C 68.996094 56.667969 69.039062 56.269531 69.082031 55.871094 L 74.117188 55.871094 C 75.902344 55.871094 77.363281 54.382812 77.363281 52.566406 L 77.363281 47.582031 L 83.773438 47.605469 C 83.339844 54.355469 81.230469 60.644531 77.867188 66.050781 Z M 61.550781 80.734375 C 63.121094 77.78125 64.464844 74.71875 65.574219 71.558594 L 73.742188 71.558594 C 70.328125 75.371094 66.191406 78.503906 61.550781 80.734375 Z M 54.027344 83.417969 C 51.945312 83.925781 49.796875 84.257812 47.597656 84.402344 L 47.597656 71.558594 L 59.820312 71.558594 C 58.230469 75.632812 56.207031 79.523438 53.746094 83.226562 Z M 63.671875 55.871094 C 63.269531 59.367188 62.597656 62.765625 61.667969 66.050781 L 47.597656 66.050781 L 47.597656 55.871094 Z M 44.757812 43.519531 L 42.046875 52.3125 L 40.355469 52.3125 L 40.3125 52.464844 L 40.273438 52.3125 L 38.738281 52.3125 L 35.820312 41.773438 L 32.902344 52.3125 L 31.367188 52.3125 L 31.328125 52.464844 L 31.285156 52.3125 L 29.59375 52.3125 L 26.882812 43.519531 L 24.175781 52.3125 L 22.484375 52.3125 L 22.4375 52.464844 L 22.402344 52.3125 L 20.867188 52.3125 L 16.402344 36.191406 L 20.691406 36.191406 L 22.6875 44.347656 L 25.214844 36.191406 L 26.871094 36.191406 L 26.882812 36.152344 L 26.894531 36.191406 L 28.554688 36.191406 L 31.082031 44.347656 L 33.074219 36.191406 L 38.566406 36.191406 L 40.558594 44.347656 L 43.085938 36.191406 L 44.746094 36.191406 L 44.757812 36.152344 L 44.769531 36.191406 L 46.425781 36.191406 L 48.957031 44.347656 L 50.949219 36.191406 L 56.4375 36.191406 L 58.429688 44.347656 L 60.960938 36.191406 L 62.617188 36.191406 L 62.628906 36.152344 L 62.640625 36.191406 L 64.296875 36.191406 L 66.828125 44.347656 L 68.820312 36.191406 L 73.113281 36.191406 L 68.648438 52.3125 L 67.109375 52.3125 L 67.074219 52.464844 L 67.027344 52.3125 L 65.339844 52.3125 L 62.628906 43.519531 L 59.917969 52.3125 L 58.230469 52.3125 L 58.183594 52.464844 L 58.148438 52.3125 L 56.609375 52.3125 L 53.691406 41.773438 L 50.773438 52.3125 L 49.238281 52.3125 L 49.203125 52.464844 L 49.15625 52.3125 L 47.464844 52.3125 Z M 42.1875 66.050781 L 27.375 66.050781 C 26.457031 62.761719 25.808594 59.367188 25.4375 55.871094 L 42.1875 55.871094 Z M 42.1875 84.386719 C 39.824219 84.210938 37.519531 83.824219 35.289062 83.234375 C 32.8125 79.527344 30.78125 75.632812 29.203125 71.558594 L 42.1875 71.558594 Z M 16.3125 71.558594 L 23.25 71.558594 C 24.25 74.414062 25.445312 77.191406 26.832031 79.878906 C 22.867188 77.730469 19.308594 74.910156 16.3125 71.558594 Z M 12.1875 66.050781 C 8.78125 60.578125 6.664062 54.195312 6.265625 47.347656 L 11.878906 47.367188 L 11.878906 52.566406 C 11.878906 54.382812 13.339844 55.871094 15.125 55.871094 L 19.820312 55.871094 C 19.886719 56.546875 19.960938 57.222656 20.046875 57.894531 C 20.402344 60.671875 20.921875 63.394531 21.597656 66.050781 Z M 13.859375 21.46875 L 23.691406 21.46875 C 22.800781 24.386719 21.960938 27.589844 21.265625 31.011719 C 21.183594 31.40625 21.109375 31.804688 21.03125 32.199219 L 15.125 32.199219 C 13.339844 32.199219 11.878906 33.6875 11.878906 35.503906 L 11.878906 41.863281 L 6.320312 41.84375 C 6.910156 34.25 9.625 27.25 13.859375 21.46875 Z M 28.1875 9.414062 C 27.378906 11.234375 26.464844 13.433594 25.539062 15.960938 L 18.734375 15.960938 C 21.539062 13.335938 24.71875 11.117188 28.1875 9.414062 Z M 42.1875 21.46875 L 42.1875 32.199219 L 26.757812 32.199219 C 27.542969 28.300781 28.539062 24.6875 29.582031 21.46875 Z M 35.773438 6.640625 C 37.851562 6.121094 39.992188 5.773438 42.1875 5.609375 L 42.1875 15.960938 L 31.542969 15.960938 C 33.46875 11.019531 35.214844 7.671875 35.773438 6.640625 Z M 47.597656 21.46875 L 60.023438 21.46875 C 60.9375 24.488281 61.804688 27.832031 62.496094 31.421875 C 62.546875 31.679688 62.59375 31.941406 62.640625 32.199219 L 47.597656 32.199219 Z M 47.597656 5.59375 C 49.863281 5.746094 52.074219 6.09375 54.21875 6.625 C 55.027344 8.25 56.5625 11.519531 58.183594 15.960938 L 47.597656 15.960938 Z M 71.320312 15.960938 L 63.949219 15.960938 C 63.054688 13.359375 62.160156 11.074219 61.359375 9.171875 C 65.023438 10.90625 68.378906 13.207031 71.320312 15.960938 Z M 76.195312 21.46875 C 80.476562 27.316406 83.203125 34.40625 83.753906 42.101562 L 77.363281 42.078125 L 77.363281 35.503906 C 77.363281 33.6875 75.902344 32.199219 74.117188 32.199219 L 68.144531 32.199219 C 68.027344 31.53125 67.90625 30.859375 67.773438 30.183594 C 67.167969 27.082031 66.445312 24.164062 65.675781 21.46875 Z M 45.027344 0 C 20.628906 0 0.78125 20.1875 0.78125 45 C 0.78125 69.8125 20.628906 89.996094 45.027344 89.996094 C 69.421875 89.996094 89.273438 69.8125 89.273438 45 C 89.273438 20.1875 69.421875 0 45.027344 0 " fill-opacity="1" fill-rule="nonzero"/></g></svg>