<svg xmlns="http://www.w3.org/2000/svg" xmlns:xlink="http://www.w3.org/1999/xlink" width="120" zoomAndPan="magnify" viewBox="0 0 90 89.999999" height="120" preserveAspectRatio="xMidYMid meet" version="1.0"><path fill="#1b9df0" d="M 90 45 C 90 46.472656 89.929688 47.945312 89.785156 49.410156 C 89.640625 50.878906 89.421875 52.332031 89.136719 53.777344 C 88.847656 55.222656 88.488281 56.652344 88.0625 58.0625 C 87.632812 59.472656 87.136719 60.859375 86.574219 62.222656 C 86.011719 63.582031 85.382812 64.914062 84.6875 66.210938 C 83.992188 67.511719 83.234375 68.773438 82.417969 70 C 81.597656 71.226562 80.71875 72.410156 79.785156 73.546875 C 78.851562 74.6875 77.863281 75.777344 76.820312 76.820312 C 75.777344 77.863281 74.6875 78.851562 73.546875 79.785156 C 72.410156 80.71875 71.226562 81.597656 70 82.417969 C 68.773438 83.234375 67.511719 83.992188 66.210938 84.6875 C 64.914062 85.382812 63.582031 86.011719 62.222656 86.574219 C 60.859375 87.136719 59.472656 87.632812 58.0625 88.0625 C 56.652344 88.488281 55.222656 88.847656 53.777344 89.136719 C 52.332031 89.421875 50.878906 89.640625 49.410156 89.785156 C 47.945312 89.929688 46.472656 90 45 90 C 43.527344 90 42.054688 89.929688 40.589844 89.785156 C 39.121094 89.640625 37.667969 89.421875 36.222656 89.136719 C 34.777344 88.847656 33.347656 88.488281 31.9375 88.0625 C 30.527344 87.632812 29.140625 87.136719 27.777344 86.574219 C 26.417969 86.011719 25.085938 85.382812 23.789062 84.6875 C 22.488281 83.992188 21.226562 83.234375 20 82.417969 C 18.773438 81.597656 17.589844 80.71875 16.453125 79.785156 C 15.3125 78.851562 14.222656 77.863281 13.179688 76.820312 C 12.136719 75.777344 11.148438 74.6875 10.214844 73.546875 C 9.28125 72.410156 8.402344 71.226562 7.582031 70 C 6.765625 68.773438 6.007812 67.511719 5.3125 66.210938 C 4.617188 64.914062 3.988281 63.582031 3.425781 62.222656 C 2.863281 60.859375 2.367188 59.472656 1.9375 58.0625 C 1.511719 56.652344 1.152344 55.222656 0.863281 53.777344 C 0.578125 52.332031 0.359375 50.878906 0.214844 49.410156 C 0.0703125 47.945312 0 46.472656 0 45 C 0 43.527344 0.0703125 42.054688 0.214844 40.589844 C 0.359375 39.121094 0.578125 37.667969 0.863281 36.222656 C 1.152344 34.777344 1.511719 33.347656 1.9375 31.9375 C 2.367188 30.527344 2.863281 29.140625 3.425781 27.777344 C 3.988281 26.417969 4.617188 25.085938 5.3125 23.789062 C 6.007812 22.488281 6.765625 21.226562 7.582031 20 C 8.402344 18.773438 9.28125 17.589844 10.214844 16.453125 C 11.148438 15.3125 12.136719 14.222656 13.179688 13.179688 C 14.222656 12.136719 15.3125 11.148438 16.453125 10.214844 C 17.589844 9.28125 18.773438 8.402344 20 7.582031 C 21.226562 6.765625 22.488281 6.007812 23.789062 5.3125 C 25.085938 4.617188 26.417969 3.988281 27.777344 3.425781 C 29.140625 2.863281 30.527344 2.367188 31.9375 1.9375 C 33.347656 1.511719 34.777344 1.152344 36.222656 0.863281 C 37.667969 0.578125 39.121094 0.359375 40.589844 0.214844 C 42.054688 0.0703125 43.527344 0 45 0 C 46.472656 0 47.945312 0.0703125 49.410156 0.214844 C 50.878906 0.359375 52.332031 0.578125 53.777344 0.863281 C 55.222656 1.152344 56.652344 1.511719 58.0625 1.9375 C 59.472656 2.367188 60.859375 2.863281 62.222656 3.425781 C 63.582031 3.988281 64.914062 4.617188 66.210938 5.3125 C 67.511719 6.007812 68.773438 6.765625 70 7.582031 C 71.226562 8.402344 72.410156 9.28125 73.546875 10.214844 C 74.6875 11.148438 75.777344 12.136719 76.820312 13.179688 C 77.863281 14.222656 78.851562 15.3125 79.785156 16.453125 C 80.71875 17.589844 81.597656 18.773438 82.417969 20 C 83.234375 21.226562 83.992188 22.488281 84.6875 23.789062 C 85.382812 25.085938 86.011719 26.417969 86.574219 27.777344 C 87.136719 29.140625 87.632812 30.527344 88.0625 31.9375 C 88.488281 33.347656 88.847656 34.777344 89.136719 36.222656 C 89.421875 37.667969 89.640625 39.121094 89.785156 40.589844 C 89.929688 42.054688 90 43.527344 90 45 Z M 90 45 " fill-opacity="1" fill-rule="nonzero"/><path fill="#ffffff" d="M 36.765625 68.738281 C 56.722656 68.738281 67.636719 52.199219 67.636719 37.867188 C 67.636719 37.394531 67.636719 36.921875 67.613281 36.472656 C 69.726562 34.941406 71.574219 33.03125 73.035156 30.847656 C 71.101562 31.703125 69.007812 32.289062 66.800781 32.558594 C 69.050781 31.207031 70.761719 29.09375 71.574219 26.550781 C 69.480469 27.789062 67.164062 28.6875 64.6875 29.183594 C 62.707031 27.066406 59.894531 25.761719 56.765625 25.761719 C 50.78125 25.761719 45.921875 30.621094 45.921875 36.609375 C 45.921875 37.460938 46.011719 38.296875 46.214844 39.082031 C 37.191406 38.632812 29.203125 34.3125 23.851562 27.742188 C 22.925781 29.339844 22.386719 31.207031 22.386719 33.1875 C 22.386719 36.945312 24.300781 40.273438 27.226562 42.210938 C 25.449219 42.164062 23.78125 41.671875 22.320312 40.859375 C 22.320312 40.90625 22.320312 40.949219 22.320312 40.996094 C 22.320312 46.261719 26.054688 50.625 31.027344 51.636719 C 30.128906 51.886719 29.160156 52.019531 28.171875 52.019531 C 27.472656 52.019531 26.796875 51.953125 26.121094 51.816406 C 27.496094 56.136719 31.5 59.265625 36.246094 59.355469 C 32.535156 62.257812 27.855469 63.988281 22.769531 63.988281 C 21.890625 63.988281 21.039062 63.945312 20.183594 63.832031 C 24.929688 66.9375 30.644531 68.738281 36.765625 68.738281 " fill-opacity="1" fill-rule="nonzero"/></svg>