<svg xmlns="http://www.w3.org/2000/svg" xmlns:xlink="http://www.w3.org/1999/xlink" width="120" zoomAndPan="magnify" viewBox="0 0 90 89.999999" height="120" preserveAspectRatio="xMidYMid meet" version="1.0"><path fill="#1877f2" d="M 90 45 C 90 20.148438 69.851562 0 45 0 C 20.148438 0 0 20.148438 0 45 C 0 67.460938 16.457031 86.078125 37.96875 89.453125 L 37.96875 58.007812 L 26.542969 58.007812 L 26.542969 45 L 37.96875 45 L 37.96875 35.085938 C 37.96875 23.808594 44.6875 17.578125 54.964844 17.578125 C 59.890625 17.578125 65.039062 18.457031 65.039062 18.457031 L 65.039062 29.53125 L 59.363281 29.53125 C 53.773438 29.53125 52.03125 33 52.03125 36.558594 L 52.03125 45 L 64.511719 45 L 62.515625 58.007812 L 52.03125 58.007812 L 52.03125 89.453125 C 73.542969 86.078125 90 67.460938 90 45 " fill-opacity="1" fill-rule="nonzero"/><path fill="#ffffff" d="M 62.515625 58.007812 L 64.511719 45 L 52.03125 45 L 52.03125 36.558594 C 52.03125 33 53.773438 29.53125 59.363281 29.53125 L 65.039062 29.53125 L 65.039062 18.457031 C 65.039062 18.457031 59.890625 17.578125 54.964844 17.578125 C 44.6875 17.578125 37.96875 23.808594 37.96875 35.085938 L 37.96875 45 L 26.542969 45 L 26.542969 58.007812 L 37.96875 58.007812 L 37.96875 89.453125 C 40.257812 89.8125 42.609375 90 45 90 C 47.390625 90 49.742188 89.8125 52.03125 89.453125 L 52.03125 58.007812 L 62.515625 58.007812 " fill-opacity="1" fill-rule="nonzero"/></svg>