<svg xmlns="http://www.w3.org/2000/svg" xmlns:xlink="http://www.w3.org/1999/xlink" width="120" zoomAndPan="magnify" viewBox="0 0 90 89.999999" height="120" preserveAspectRatio="xMidYMid meet" version="1.0"><defs><clipPath id="30ee0a9e77"><path d="M 2.128906 0 L 87.628906 0 L 87.628906 90 L 2.128906 90 Z M 2.128906 0 " clip-rule="nonzero"/></clipPath></defs><g clip-path="url(#30ee0a9e77)"><path fill="#6441a4" d="M 8.144531 0.0976562 L 2.128906 15.511719 L 2.128906 78.507812 L 23.515625 78.507812 L 23.515625 89.902344 L 35.546875 89.902344 L 46.90625 78.507812 L 64.285156 78.507812 L 87.675781 55.050781 L 87.675781 0.0976562 Z M 79.65625 51.035156 L 66.289062 64.433594 L 44.902344 64.433594 L 33.539062 75.828125 L 33.539062 64.433594 L 15.492188 64.433594 L 15.492188 8.136719 L 79.652344 8.136719 L 79.652344 51.035156 Z M 66.289062 23.554688 L 66.289062 47.007812 L 58.269531 47.007812 L 58.269531 23.554688 Z M 44.898438 23.554688 L 44.898438 47.007812 L 36.882812 47.007812 L 36.882812 23.554688 Z M 44.898438 23.554688 " fill-opacity="1" fill-rule="evenodd"/></g></svg>