<svg xmlns="http://www.w3.org/2000/svg" xmlns:xlink="http://www.w3.org/1999/xlink" width="120" zoomAndPan="magnify" viewBox="0 0 90 89.999999" height="120" preserveAspectRatio="xMidYMid meet" version="1.0"><path fill="#0177b5" d="M 83.335938 0.00390625 L 6.644531 0.00390625 C 2.980469 0.00390625 0 2.90625 0 6.484375 L 0 83.503906 C 0 87.089844 2.980469 90 6.644531 90 L 83.339844 90 C 87.011719 90 90 87.089844 90 83.503906 L 90 6.484375 C 90 2.90625 87.011719 0.00390625 83.335938 0.00390625 Z M 83.335938 0.00390625 " fill-opacity="1" fill-rule="nonzero"/><path fill="#ffffff" d="M 13.34375 33.742188 L 26.71875 33.742188 L 26.71875 76.6875 L 13.34375 76.6875 Z M 20.023438 12.367188 C 24.289062 12.367188 27.757812 15.835938 27.757812 20.101562 C 27.757812 24.367188 24.289062 27.84375 20.023438 27.84375 C 19.515625 27.84375 19.011719 27.792969 18.515625 27.691406 C 18.015625 27.59375 17.535156 27.445312 17.0625 27.25 C 16.59375 27.054688 16.148438 26.816406 15.726562 26.535156 C 15.304688 26.25 14.914062 25.929688 14.554688 25.570312 C 14.195312 25.210938 13.875 24.820312 13.589844 24.398438 C 13.308594 23.976562 13.070312 23.53125 12.875 23.0625 C 12.679688 22.59375 12.53125 22.109375 12.429688 21.609375 C 12.332031 21.113281 12.28125 20.609375 12.28125 20.101562 C 12.28125 19.59375 12.328125 19.089844 12.429688 18.589844 C 12.527344 18.09375 12.675781 17.609375 12.867188 17.140625 C 13.0625 16.667969 13.300781 16.222656 13.585938 15.800781 C 13.867188 15.378906 14.1875 14.988281 14.546875 14.628906 C 14.90625 14.269531 15.296875 13.949219 15.722656 13.667969 C 16.144531 13.386719 16.589844 13.148438 17.058594 12.953125 C 17.53125 12.757812 18.011719 12.613281 18.511719 12.515625 C 19.011719 12.414062 19.515625 12.367188 20.023438 12.367188 M 35.070312 33.742188 L 47.871094 33.742188 L 47.871094 39.609375 L 48.046875 39.609375 C 49.832031 36.234375 54.1875 32.675781 60.703125 32.675781 C 74.222656 32.675781 76.714844 41.570312 76.714844 53.132812 L 76.714844 76.691406 L 63.375 76.691406 L 63.375 55.800781 C 63.375 50.820312 63.285156 44.410156 56.441406 44.410156 C 49.496094 44.410156 48.425781 49.835938 48.425781 55.433594 L 48.425781 76.679688 L 35.089844 76.679688 L 35.089844 33.734375 Z M 35.070312 33.742188 " fill-opacity="1" fill-rule="nonzero"/></svg>