<svg xmlns="http://www.w3.org/2000/svg" xmlns:xlink="http://www.w3.org/1999/xlink" width="120" zoomAndPan="magnify" viewBox="0 0 90 89.999999" height="120" preserveAspectRatio="xMidYMid meet" version="1.0"><path fill="#000000" d="M 45.628906 15.890625 C 48.019531 15.890625 50.410156 16.40625 52.578125 17.382812 C 56.167969 18.988281 59.097656 22.027344 60.550781 25.695312 C 61.378906 27.796875 61.402344 30.214844 61.382812 32.4375 L 61.238281 36.285156 L 61.054688 39.277344 C 61.042969 39.503906 60.960938 39.8125 61.011719 40.039062 C 61.121094 40.53125 61.90625 40.859375 62.335938 40.992188 C 63.472656 41.351562 64.667969 41.09375 65.761719 40.703125 C 66.417969 40.46875 67.007812 40.078125 67.722656 40.144531 C 68.242188 40.195312 68.847656 40.425781 69.214844 40.800781 C 69.601562 41.195312 69.519531 41.589844 69.1875 41.964844 C 68.554688 42.683594 67.503906 43.09375 66.617188 43.386719 C 65.632812 43.703125 64.648438 43.992188 63.757812 44.472656 C 62.867188 44.953125 62.042969 45.640625 61.691406 46.621094 C 61.285156 47.757812 61.625 48.914062 62.105469 49.96875 C 62.933594 51.761719 63.972656 53.425781 65.222656 54.957031 C 67.542969 57.8125 70.574219 60.125 74.125 61.179688 C 74.644531 61.320312 75.175781 61.460938 75.710938 61.5625 C 75.9375 61.605469 76.085938 61.554688 76.007812 61.792969 C 75.996094 61.824219 75.972656 61.855469 75.957031 61.882812 C 75.839844 62.078125 75.644531 62.238281 75.460938 62.375 C 74.414062 63.140625 73.035156 63.492188 71.796875 63.792969 L 70.027344 64.175781 C 69.4375 64.285156 68.71875 64.285156 68.171875 64.527344 C 67.253906 64.921875 67.117188 66.292969 66.925781 67.140625 L 66.691406 68.128906 C 66.613281 68.417969 66.636719 68.566406 66.324219 68.570312 C 65.796875 68.578125 65.261719 68.4375 64.742188 68.34375 C 63.523438 68.117188 62.28125 67.996094 61.042969 68.027344 C 59.683594 68.0625 58.300781 68.21875 57.039062 68.742188 C 55.832031 69.246094 54.75 70.003906 53.691406 70.753906 C 51.835938 72.066406 49.945312 73.363281 47.691406 73.863281 C 46.558594 74.113281 45.390625 74.140625 44.234375 74.105469 C 42.996094 74.0625 41.800781 73.8125 40.652344 73.351562 C 38.472656 72.476562 36.703125 70.929688 34.738281 69.695312 C 33.621094 68.992188 32.4375 68.433594 31.125 68.226562 C 29.730469 68.007812 28.320312 67.964844 26.917969 68.113281 L 25.296875 68.359375 C 24.773438 68.457031 24.203125 68.644531 23.664062 68.625 C 23.410156 68.613281 23.40625 68.535156 23.339844 68.300781 L 23.082031 67.230469 C 22.960938 66.679688 22.855469 66.117188 22.660156 65.589844 C 22.519531 65.175781 22.273438 64.753906 21.863281 64.554688 C 21.332031 64.300781 20.609375 64.304688 20.035156 64.199219 C 18.964844 64 17.894531 63.761719 16.855469 63.433594 C 15.960938 63.152344 14.886719 62.804688 14.210938 62.109375 C 14.148438 62.042969 14.085938 61.972656 14.039062 61.894531 C 14.023438 61.871094 14 61.839844 13.992188 61.808594 C 13.917969 61.585938 14.003906 61.617188 14.222656 61.578125 C 15.261719 61.386719 16.269531 61.09375 17.25 60.703125 C 19.035156 59.984375 20.679688 58.945312 22.132812 57.691406 C 24.265625 55.847656 26.035156 53.554688 27.351562 51.066406 C 27.800781 50.214844 28.285156 49.285156 28.4375 48.335938 C 28.816406 45.949219 26.855469 44.601562 24.875 43.878906 C 23.824219 43.5 22.742188 43.238281 21.757812 42.679688 C 21.3125 42.425781 20.441406 41.921875 20.511719 41.285156 C 20.5625 40.804688 21.15625 40.476562 21.554688 40.328125 C 21.824219 40.226562 22.121094 40.160156 22.414062 40.179688 C 22.761719 40.199219 23.058594 40.382812 23.378906 40.511719 C 24.535156 40.988281 25.824219 41.324219 27.082031 41.128906 C 27.710938 41.03125 28.363281 40.792969 28.8125 40.332031 C 28.921875 40.21875 28.960938 40.171875 28.988281 40.035156 C 29.03125 39.785156 28.953125 39.453125 28.941406 39.203125 L 28.816406 37.207031 L 28.695312 29.5625 C 28.777344 28.46875 28.921875 27.371094 29.238281 26.320312 C 29.554688 25.273438 30.082031 24.289062 30.652344 23.363281 C 31.699219 21.660156 33.058594 20.152344 34.679688 18.976562 C 37.050781 17.25 39.917969 16.257812 42.832031 15.980469 C 43.757812 15.890625 44.691406 15.894531 45.625 15.894531 M 0 75.601562 C 0 83.550781 6.449219 90 14.398438 90 L 75.601562 90 C 83.550781 90 90 83.550781 90 75.601562 L 90 14.398438 C 90 6.449219 83.550781 0 75.601562 0 L 14.398438 0 C 6.449219 0 0 6.449219 0 14.398438 L 0 75.601562 " fill-opacity="1" fill-rule="nonzero"/><path fill="#fffc00" d="M 1.6875 14.398438 C 1.6875 7.378906 7.378906 1.6875 14.398438 1.6875 L 75.601562 1.6875 C 82.621094 1.6875 88.3125 7.378906 88.3125 14.398438 L 88.3125 75.601562 C 88.3125 82.621094 82.621094 88.3125 75.601562 88.3125 L 14.398438 88.3125 C 7.378906 88.3125 1.6875 82.621094 1.6875 75.601562 L 1.6875 14.398438 M 45.628906 14.546875 C 43.476562 14.554688 41.390625 14.6875 39.304688 15.277344 C 35.984375 16.21875 32.988281 18.113281 30.8125 20.804688 C 29.460938 22.472656 28.289062 24.457031 27.785156 26.554688 C 27.222656 28.894531 27.226562 31.363281 27.300781 33.753906 C 27.339844 35.019531 27.414062 36.28125 27.492188 37.542969 L 27.546875 38.457031 C 27.5625 38.660156 27.710938 39.4375 27.585938 39.574219 C 27.335938 39.867188 26.523438 39.847656 26.191406 39.832031 C 25.601562 39.8125 25.015625 39.671875 24.457031 39.480469 C 23.851562 39.273438 23.273438 38.90625 22.625 38.84375 C 22.09375 38.800781 21.582031 38.875 21.085938 39.0625 C 20.585938 39.246094 20.152344 39.53125 19.777344 39.910156 C 18.582031 41.171875 19.34375 42.664062 20.574219 43.519531 C 21.570312 44.207031 22.707031 44.574219 23.847656 44.945312 C 24.789062 45.257812 25.824219 45.613281 26.542969 46.324219 C 27.589844 47.367188 27.003906 48.738281 26.449219 49.875 C 26.011719 50.761719 25.515625 51.613281 24.964844 52.429688 C 23.09375 55.214844 20.597656 57.660156 17.539062 59.101562 C 16.613281 59.539062 15.65625 59.875 14.660156 60.109375 C 14.171875 60.222656 13.582031 60.230469 13.164062 60.523438 C 12.707031 60.847656 12.519531 61.402344 12.628906 61.941406 C 12.902344 63.308594 14.542969 64.019531 15.699219 64.453125 C 16.722656 64.832031 17.785156 65.105469 18.851562 65.328125 C 19.5 65.464844 20.15625 65.585938 20.808594 65.695312 C 21.128906 65.746094 21.273438 65.726562 21.390625 66.035156 C 21.480469 66.273438 21.539062 66.527344 21.601562 66.773438 C 21.746094 67.382812 21.863281 68.003906 22.03125 68.605469 C 22.140625 69.003906 22.285156 69.378906 22.617188 69.648438 C 23.484375 70.328125 24.855469 69.800781 25.820312 69.632812 C 28.390625 69.175781 31.195312 69.191406 33.511719 70.523438 C 35.523438 71.683594 37.261719 73.25 39.363281 74.253906 C 41.601562 75.324219 44.074219 75.632812 46.535156 75.40625 C 48.839844 75.191406 50.921875 74.246094 52.835938 72.984375 C 54.921875 71.605469 56.84375 69.859375 59.410156 69.511719 C 60.804688 69.324219 62.222656 69.332031 63.613281 69.523438 C 64.582031 69.660156 65.585938 69.996094 66.566406 69.910156 C 67.898438 69.796875 68.039062 68.34375 68.269531 67.292969 C 68.363281 66.871094 68.40625 66.238281 68.660156 65.875 C 68.808594 65.664062 69.226562 65.683594 69.480469 65.640625 L 70.554688 65.445312 C 72.421875 65.078125 74.492188 64.652344 76.097656 63.566406 C 76.558594 63.253906 77.003906 62.855469 77.234375 62.332031 C 77.453125 61.839844 77.460938 61.269531 77.132812 60.824219 C 76.792969 60.363281 76.289062 60.308594 75.765625 60.203125 C 73.808594 59.8125 71.953125 58.996094 70.308594 57.875 C 67.785156 56.152344 65.738281 53.757812 64.210938 51.125 C 63.894531 50.574219 63.601562 50.015625 63.339844 49.4375 C 62.917969 48.550781 62.5625 47.496094 63.199219 46.617188 C 63.785156 45.808594 64.839844 45.398438 65.746094 45.082031 C 66.863281 44.6875 67.992188 44.382812 69.023438 43.773438 C 69.769531 43.328125 70.558594 42.699219 70.773438 41.8125 C 71.335938 39.476562 67.996094 38.292969 66.257812 39.039062 C 65.1875 39.5 63.882812 40.089844 62.703125 39.699219 C 62.625 39.675781 62.492188 39.648438 62.421875 39.589844 C 62.324219 39.492188 62.375 39.339844 62.382812 39.1875 L 62.546875 36.570312 C 62.695312 34.066406 62.8125 31.546875 62.589844 29.042969 C 62.488281 27.917969 62.316406 26.820312 61.976562 25.753906 C 61.644531 24.714844 61.121094 23.726562 60.5625 22.792969 C 59.523438 21.054688 58.183594 19.5 56.589844 18.246094 C 54.191406 16.359375 51.277344 15.199219 48.265625 14.75 C 47.386719 14.613281 46.5 14.542969 45.609375 14.542969 M 24.046875 3.996094 C 23.25 3.996094 22.605469 4.640625 22.605469 5.4375 C 22.605469 6.238281 23.253906 6.882812 24.046875 6.882812 C 24.84375 6.882812 25.492188 6.234375 25.492188 5.4375 C 25.488281 4.640625 24.84375 3.996094 24.046875 3.996094 M 28.699219 3.996094 C 27.902344 3.996094 27.257812 4.640625 27.257812 5.4375 C 27.257812 6.238281 27.902344 6.882812 28.699219 6.882812 C 29.496094 6.882812 30.144531 6.234375 30.144531 5.4375 C 30.140625 4.640625 29.496094 3.996094 28.699219 3.996094 M 42.65625 3.996094 C 41.859375 3.996094 41.210938 4.640625 41.214844 5.4375 C 41.214844 6.238281 41.859375 6.882812 42.65625 6.882812 C 43.453125 6.882812 44.101562 6.234375 44.097656 5.4375 C 44.097656 4.640625 43.453125 3.996094 42.65625 3.996094 M 47.308594 3.996094 C 46.511719 3.996094 45.867188 4.640625 45.867188 5.4375 C 45.867188 6.238281 46.515625 6.882812 47.308594 6.882812 C 48.105469 6.882812 48.753906 6.234375 48.753906 5.4375 C 48.75 4.640625 48.105469 3.996094 47.308594 3.996094 M 65.917969 3.996094 C 65.121094 3.996094 64.476562 4.640625 64.476562 5.4375 C 64.476562 6.238281 65.125 6.882812 65.917969 6.882812 C 66.714844 6.882812 67.363281 6.234375 67.363281 5.4375 C 67.359375 4.640625 66.714844 3.996094 65.917969 3.996094 M 10.109375 8.664062 C 9.3125 8.664062 8.667969 9.3125 8.667969 10.109375 C 8.667969 10.90625 9.3125 11.554688 10.109375 11.554688 C 10.910156 11.554688 11.554688 10.90625 11.554688 10.109375 C 11.554688 9.3125 10.910156 8.664062 10.109375 8.664062 M 24.066406 8.664062 C 23.269531 8.664062 22.621094 9.3125 22.621094 10.109375 C 22.621094 10.90625 23.269531 11.554688 24.066406 11.554688 C 24.863281 11.554688 25.511719 10.90625 25.511719 10.109375 C 25.511719 9.3125 24.863281 8.664062 24.066406 8.664062 M 28.71875 8.664062 C 27.921875 8.664062 27.273438 9.3125 27.273438 10.109375 C 27.273438 10.90625 27.921875 11.554688 28.71875 11.554688 C 29.515625 11.554688 30.164062 10.90625 30.164062 10.109375 C 30.164062 9.3125 29.515625 8.664062 28.71875 8.664062 M 42.675781 8.664062 C 41.875 8.664062 41.230469 9.3125 41.230469 10.109375 C 41.230469 10.90625 41.875 11.554688 42.675781 11.554688 C 43.472656 11.554688 44.117188 10.90625 44.117188 10.109375 C 44.117188 9.3125 43.472656 8.664062 42.675781 8.664062 M 47.328125 8.664062 C 46.53125 8.664062 45.882812 9.3125 45.882812 10.109375 C 45.882812 10.90625 46.53125 11.554688 47.328125 11.554688 C 48.125 11.554688 48.773438 10.90625 48.773438 10.109375 C 48.773438 9.3125 48.125 8.664062 47.328125 8.664062 M 51.980469 8.664062 C 51.183594 8.664062 50.535156 9.3125 50.535156 10.109375 C 50.535156 10.90625 51.183594 11.554688 51.980469 11.554688 C 52.777344 11.554688 53.425781 10.90625 53.425781 10.109375 C 53.425781 9.3125 52.777344 8.664062 51.980469 8.664062 M 65.9375 8.664062 C 65.140625 8.664062 64.492188 9.3125 64.492188 10.109375 C 64.492188 10.90625 65.140625 11.554688 65.9375 11.554688 C 66.734375 11.554688 67.378906 10.90625 67.378906 10.109375 C 67.378906 9.3125 66.734375 8.664062 65.9375 8.664062 M 75.238281 8.664062 C 74.441406 8.664062 73.796875 9.3125 73.796875 10.109375 C 73.796875 10.90625 74.441406 11.554688 75.238281 11.554688 C 76.039062 11.554688 76.683594 10.90625 76.683594 10.109375 C 76.683594 9.3125 76.039062 8.664062 75.238281 8.664062 M 79.890625 8.664062 C 79.09375 8.664062 78.449219 9.3125 78.449219 10.109375 C 78.449219 10.90625 79.09375 11.554688 79.890625 11.554688 C 80.6875 11.554688 81.335938 10.90625 81.335938 10.109375 C 81.335938 9.3125 80.6875 8.664062 79.890625 8.664062 M 10.109375 13.316406 C 9.3125 13.316406 8.667969 13.964844 8.667969 14.761719 C 8.667969 15.558594 9.3125 16.207031 10.109375 16.207031 C 10.910156 16.207031 11.554688 15.558594 11.554688 14.761719 C 11.554688 13.964844 10.90625 13.316406 10.109375 13.316406 M 14.761719 13.316406 C 13.964844 13.316406 13.320312 13.964844 13.320312 14.761719 C 13.320312 15.558594 13.964844 16.207031 14.761719 16.207031 C 15.558594 16.207031 16.207031 15.558594 16.207031 14.761719 C 16.207031 13.964844 15.558594 13.316406 14.761719 13.316406 M 61.285156 13.316406 C 60.488281 13.316406 59.839844 13.964844 59.839844 14.761719 C 59.839844 15.558594 60.488281 16.207031 61.285156 16.207031 C 62.082031 16.207031 62.730469 15.558594 62.730469 14.761719 C 62.730469 13.964844 62.082031 13.316406 61.285156 13.316406 M 65.9375 13.316406 C 65.140625 13.316406 64.492188 13.964844 64.492188 14.761719 C 64.492188 15.558594 65.140625 16.207031 65.9375 16.207031 C 66.734375 16.207031 67.378906 15.558594 67.378906 14.761719 C 67.378906 13.964844 66.734375 13.316406 65.9375 13.316406 M 5.457031 17.96875 C 4.660156 17.96875 4.011719 18.617188 4.011719 19.414062 C 4.011719 20.210938 4.660156 20.859375 5.457031 20.859375 C 6.253906 20.859375 6.902344 20.210938 6.902344 19.414062 C 6.902344 18.617188 6.253906 17.96875 5.457031 17.96875 M 24.066406 17.96875 C 23.269531 17.96875 22.621094 18.617188 22.621094 19.414062 C 22.621094 20.210938 23.269531 20.859375 24.066406 20.859375 C 24.863281 20.859375 25.507812 20.210938 25.507812 19.414062 C 25.507812 18.617188 24.863281 17.96875 24.066406 17.96875 M 65.933594 17.96875 C 65.136719 17.96875 64.492188 18.617188 64.492188 19.414062 C 64.492188 20.210938 65.136719 20.859375 65.933594 20.859375 C 66.730469 20.859375 67.378906 20.210938 67.378906 19.414062 C 67.378906 18.617188 66.730469 17.96875 65.933594 17.96875 M 75.238281 17.96875 C 74.441406 17.96875 73.792969 18.617188 73.792969 19.414062 C 73.792969 20.210938 74.441406 20.859375 75.238281 20.859375 C 76.035156 20.859375 76.683594 20.210938 76.683594 19.414062 C 76.683594 18.617188 76.035156 17.96875 75.238281 17.96875 M 79.890625 17.96875 C 79.09375 17.96875 78.445312 18.617188 78.445312 19.414062 C 78.445312 20.210938 79.09375 20.859375 79.890625 20.859375 C 80.6875 20.859375 81.335938 20.210938 81.335938 19.414062 C 81.335938 18.617188 80.6875 17.96875 79.890625 17.96875 M 84.542969 17.96875 C 83.746094 17.96875 83.097656 18.617188 83.097656 19.414062 C 83.097656 20.210938 83.746094 20.859375 84.542969 20.859375 C 85.339844 20.859375 85.988281 20.210938 85.988281 19.414062 C 85.988281 18.617188 85.339844 17.96875 84.542969 17.96875 M 19.414062 22.621094 C 18.617188 22.621094 17.96875 23.269531 17.96875 24.066406 C 17.96875 24.867188 18.617188 25.507812 19.414062 25.507812 C 20.210938 25.511719 20.855469 24.863281 20.855469 24.0625 C 20.855469 23.265625 20.210938 22.621094 19.414062 22.621094 M 75.238281 22.621094 C 74.441406 22.621094 73.796875 23.269531 73.796875 24.066406 C 73.796875 24.867188 74.441406 25.507812 75.238281 25.507812 C 76.035156 25.511719 76.679688 24.863281 76.679688 24.0625 C 76.679688 23.265625 76.035156 22.621094 75.238281 22.621094 M 5.457031 27.273438 C 4.660156 27.273438 4.011719 27.917969 4.011719 28.71875 C 4.011719 29.515625 4.660156 30.160156 5.457031 30.160156 C 6.253906 30.160156 6.902344 29.515625 6.902344 28.71875 C 6.902344 27.917969 6.253906 27.273438 5.457031 27.273438 M 10.109375 27.273438 C 9.3125 27.273438 8.664062 27.917969 8.664062 28.71875 C 8.664062 29.515625 9.3125 30.160156 10.109375 30.160156 C 10.90625 30.160156 11.550781 29.515625 11.550781 28.71875 C 11.550781 27.917969 10.90625 27.273438 10.109375 27.273438 M 24.0625 27.273438 C 23.265625 27.273438 22.621094 27.917969 22.621094 28.71875 C 22.621094 29.515625 23.265625 30.160156 24.0625 30.160156 C 24.859375 30.160156 25.507812 29.515625 25.507812 28.71875 C 25.507812 27.917969 24.859375 27.273438 24.0625 27.273438 M 65.933594 27.273438 C 65.136719 27.273438 64.488281 27.917969 64.488281 28.71875 C 64.488281 29.515625 65.136719 30.160156 65.933594 30.160156 C 66.730469 30.160156 67.378906 29.515625 67.378906 28.71875 C 67.378906 27.917969 66.730469 27.273438 65.933594 27.273438 M 75.238281 27.273438 C 74.441406 27.273438 73.792969 27.917969 73.792969 28.71875 C 73.792969 29.515625 74.441406 30.160156 75.238281 30.160156 C 76.035156 30.160156 76.679688 29.515625 76.679688 28.71875 C 76.679688 27.917969 76.035156 27.273438 75.238281 27.273438 M 79.890625 27.273438 C 79.089844 27.273438 78.445312 27.917969 78.445312 28.71875 C 78.445312 29.515625 79.089844 30.160156 79.890625 30.160156 C 80.6875 30.160156 81.332031 29.515625 81.332031 28.71875 C 81.332031 27.917969 80.6875 27.273438 79.890625 27.273438 M 14.761719 31.925781 C 13.960938 31.925781 13.316406 32.570312 13.316406 33.367188 C 13.316406 34.167969 13.960938 34.8125 14.761719 34.8125 C 15.558594 34.8125 16.203125 34.167969 16.203125 33.367188 C 16.203125 32.570312 15.558594 31.925781 14.761719 31.925781 M 24.0625 31.925781 C 23.265625 31.925781 22.621094 32.570312 22.621094 33.367188 C 22.621094 34.167969 23.265625 34.8125 24.0625 34.8125 C 24.859375 34.8125 25.507812 34.167969 25.507812 33.367188 C 25.507812 32.570312 24.859375 31.925781 24.0625 31.925781 M 70.585938 31.925781 C 69.789062 31.925781 69.140625 32.570312 69.140625 33.367188 C 69.140625 34.167969 69.789062 34.8125 70.585938 34.8125 C 71.382812 34.8125 72.03125 34.167969 72.03125 33.367188 C 72.03125 32.570312 71.382812 31.925781 70.585938 31.925781 M 75.238281 31.925781 C 74.441406 31.925781 73.792969 32.570312 73.792969 33.367188 C 73.792969 34.167969 74.441406 34.8125 75.238281 34.8125 C 76.035156 34.8125 76.679688 34.167969 76.679688 33.367188 C 76.679688 32.570312 76.035156 31.925781 75.238281 31.925781 M 84.539062 31.925781 C 83.742188 31.925781 83.097656 32.570312 83.097656 33.367188 C 83.097656 34.167969 83.742188 34.8125 84.539062 34.8125 C 85.339844 34.8125 85.984375 34.167969 85.984375 33.367188 C 85.984375 32.570312 85.339844 31.925781 84.539062 31.925781 M 5.457031 36.578125 C 4.660156 36.578125 4.011719 37.222656 4.011719 38.023438 C 4.011719 38.820312 4.660156 39.464844 5.457031 39.464844 C 6.253906 39.464844 6.898438 38.816406 6.898438 38.019531 C 6.898438 37.21875 6.253906 36.578125 5.457031 36.578125 M 79.890625 36.578125 C 79.089844 36.578125 78.445312 37.222656 78.445312 38.023438 C 78.445312 38.820312 79.09375 39.464844 79.890625 39.464844 C 80.683594 39.464844 81.332031 38.816406 81.332031 38.019531 C 81.332031 37.21875 80.683594 36.578125 79.890625 36.578125 M 84.539062 36.578125 C 83.742188 36.578125 83.097656 37.222656 83.097656 38.023438 C 83.097656 38.820312 83.746094 39.464844 84.539062 39.464844 C 85.335938 39.464844 85.984375 38.816406 85.984375 38.019531 C 85.984375 37.21875 85.335938 36.578125 84.539062 36.578125 M 5.457031 41.230469 C 4.660156 41.234375 4.011719 41.878906 4.011719 42.675781 C 4.011719 43.476562 4.660156 44.117188 5.457031 44.121094 C 6.253906 44.121094 6.898438 43.472656 6.898438 42.675781 C 6.898438 41.875 6.253906 41.234375 5.457031 41.230469 M 10.109375 41.230469 C 9.3125 41.234375 8.664062 41.878906 8.664062 42.675781 C 8.664062 43.476562 9.3125 44.117188 10.109375 44.121094 C 10.902344 44.121094 11.550781 43.472656 11.550781 42.675781 C 11.550781 41.875 10.902344 41.234375 10.109375 41.230469 M 14.761719 41.230469 C 13.960938 41.234375 13.316406 41.878906 13.316406 42.675781 C 13.316406 43.476562 13.964844 44.117188 14.761719 44.121094 C 15.554688 44.121094 16.203125 43.472656 16.203125 42.675781 C 16.203125 41.875 15.554688 41.234375 14.761719 41.230469 M 79.890625 41.230469 C 79.089844 41.234375 78.445312 41.878906 78.445312 42.675781 C 78.445312 43.476562 79.09375 44.117188 79.890625 44.121094 C 80.683594 44.121094 81.332031 43.472656 81.332031 42.675781 C 81.332031 41.875 80.683594 41.234375 79.890625 41.230469 M 5.457031 45.886719 C 4.660156 45.886719 4.011719 46.53125 4.011719 47.332031 C 4.011719 48.128906 4.660156 48.773438 5.457031 48.773438 C 6.253906 48.773438 6.902344 48.128906 6.902344 47.332031 C 6.902344 46.53125 6.253906 45.886719 5.457031 45.886719 M 10.109375 45.886719 C 9.3125 45.886719 8.664062 46.53125 8.664062 47.332031 C 8.664062 48.128906 9.3125 48.773438 10.109375 48.773438 C 10.90625 48.773438 11.550781 48.128906 11.550781 47.332031 C 11.550781 46.53125 10.90625 45.886719 10.109375 45.886719 M 79.890625 45.886719 C 79.09375 45.886719 78.445312 46.53125 78.445312 47.332031 C 78.445312 48.128906 79.09375 48.773438 79.890625 48.773438 C 80.6875 48.773438 81.335938 48.128906 81.335938 47.332031 C 81.335938 46.53125 80.6875 45.886719 79.890625 45.886719 M 84.542969 45.886719 C 83.746094 45.886719 83.097656 46.53125 83.097656 47.332031 C 83.097656 48.128906 83.746094 48.773438 84.542969 48.773438 C 85.339844 48.773438 85.988281 48.128906 85.988281 47.332031 C 85.988281 46.53125 85.339844 45.886719 84.542969 45.886719 M 70.585938 50.539062 C 69.789062 50.539062 69.140625 51.183594 69.140625 51.980469 C 69.140625 52.78125 69.789062 53.425781 70.585938 53.425781 C 71.382812 53.425781 72.03125 52.78125 72.03125 51.980469 C 72.03125 51.183594 71.382812 50.539062 70.585938 50.539062 M 84.542969 50.539062 C 83.746094 50.539062 83.097656 51.183594 83.097656 51.980469 C 83.097656 52.78125 83.746094 53.425781 84.542969 53.425781 C 85.339844 53.425781 85.988281 52.78125 85.988281 51.980469 C 85.988281 51.183594 85.339844 50.539062 84.542969 50.539062 M 10.109375 55.1875 C 9.3125 55.1875 8.667969 55.832031 8.667969 56.632812 C 8.667969 57.429688 9.316406 58.074219 10.109375 58.074219 C 10.90625 58.078125 11.554688 57.429688 11.554688 56.628906 C 11.554688 55.832031 10.90625 55.1875 10.109375 55.1875 M 14.761719 55.1875 C 13.964844 55.1875 13.320312 55.832031 13.320312 56.632812 C 13.320312 57.429688 13.96875 58.074219 14.761719 58.074219 C 15.558594 58.078125 16.207031 57.429688 16.207031 56.628906 C 16.207031 55.832031 15.558594 55.1875 14.761719 55.1875 M 75.238281 55.1875 C 74.441406 55.1875 73.796875 55.832031 73.796875 56.632812 C 73.796875 57.429688 74.445312 58.074219 75.238281 58.074219 C 76.035156 58.078125 76.683594 57.429688 76.683594 56.628906 C 76.683594 55.832031 76.035156 55.1875 75.238281 55.1875 M 84.542969 55.1875 C 83.746094 55.1875 83.101562 55.832031 83.101562 56.632812 C 83.101562 57.429688 83.746094 58.074219 84.542969 58.074219 C 85.339844 58.078125 85.988281 57.429688 85.988281 56.628906 C 85.988281 55.832031 85.339844 55.1875 84.542969 55.1875 M 84.542969 59.839844 C 83.746094 59.839844 83.101562 60.484375 83.101562 61.285156 C 83.101562 62.082031 83.746094 62.726562 84.542969 62.726562 C 85.339844 62.730469 85.988281 62.082031 85.988281 61.28125 C 85.988281 60.484375 85.339844 59.839844 84.542969 59.839844 M 79.890625 64.492188 C 79.089844 64.492188 78.445312 65.136719 78.445312 65.9375 C 78.445312 66.734375 79.09375 67.378906 79.890625 67.378906 C 80.683594 67.378906 81.332031 66.730469 81.332031 65.933594 C 81.332031 65.132812 80.683594 64.492188 79.890625 64.492188 M 84.539062 64.492188 C 83.742188 64.492188 83.097656 65.136719 83.097656 65.9375 C 83.097656 66.734375 83.746094 67.378906 84.539062 67.378906 C 85.335938 67.378906 85.984375 66.730469 85.984375 65.933594 C 85.984375 65.132812 85.335938 64.492188 84.539062 64.492188 M 5.457031 69.140625 C 4.660156 69.144531 4.011719 69.789062 4.011719 70.589844 C 4.011719 71.386719 4.660156 72.03125 5.457031 72.03125 C 6.253906 72.03125 6.898438 71.382812 6.898438 70.585938 C 6.898438 69.785156 6.253906 69.144531 5.457031 69.140625 M 10.109375 69.140625 C 9.3125 69.144531 8.664062 69.789062 8.664062 70.589844 C 8.664062 71.386719 9.3125 72.03125 10.109375 72.03125 C 10.902344 72.03125 11.550781 71.382812 11.550781 70.585938 C 11.550781 69.785156 10.902344 69.144531 10.109375 69.140625 M 75.238281 69.140625 C 74.441406 69.144531 73.792969 69.789062 73.792969 70.589844 C 73.792969 71.386719 74.441406 72.03125 75.238281 72.03125 C 76.03125 72.03125 76.679688 71.382812 76.679688 70.585938 C 76.679688 69.785156 76.03125 69.144531 75.238281 69.140625 M 19.410156 73.792969 C 18.613281 73.796875 17.96875 74.441406 17.96875 75.238281 C 17.96875 76.039062 18.617188 76.679688 19.410156 76.683594 C 20.207031 76.683594 20.855469 76.035156 20.855469 75.238281 C 20.855469 74.4375 20.207031 73.796875 19.410156 73.792969 M 24.0625 73.792969 C 23.265625 73.796875 22.621094 74.441406 22.621094 75.238281 C 22.621094 76.039062 23.269531 76.679688 24.0625 76.683594 C 24.859375 76.683594 25.507812 76.035156 25.507812 75.238281 C 25.507812 74.4375 24.859375 73.796875 24.0625 73.792969 M 28.714844 73.792969 C 27.917969 73.796875 27.273438 74.441406 27.273438 75.238281 C 27.273438 76.039062 27.917969 76.679688 28.714844 76.683594 C 29.511719 76.683594 30.160156 76.035156 30.160156 75.238281 C 30.160156 74.4375 29.511719 73.796875 28.714844 73.792969 M 33.367188 73.792969 C 32.570312 73.796875 31.925781 74.441406 31.925781 75.238281 C 31.925781 76.039062 32.570312 76.679688 33.367188 76.683594 C 34.164062 76.683594 34.808594 76.035156 34.808594 75.238281 C 34.808594 74.4375 34.164062 73.796875 33.367188 73.792969 M 56.625 73.792969 C 55.828125 73.796875 55.183594 74.441406 55.183594 75.238281 C 55.183594 76.039062 55.832031 76.679688 56.625 76.683594 C 57.421875 76.683594 58.070312 76.035156 58.070312 75.238281 C 58.070312 74.4375 57.421875 73.796875 56.625 73.792969 M 65.929688 73.792969 C 65.132812 73.796875 64.488281 74.441406 64.488281 75.238281 C 64.488281 76.039062 65.132812 76.679688 65.929688 76.683594 C 66.726562 76.683594 67.375 76.035156 67.375 75.238281 C 67.375 74.4375 66.726562 73.796875 65.929688 73.792969 M 79.886719 73.792969 C 79.089844 73.796875 78.445312 74.441406 78.445312 75.238281 C 78.445312 76.039062 79.089844 76.679688 79.886719 76.683594 C 80.683594 76.683594 81.328125 76.035156 81.328125 75.238281 C 81.328125 74.4375 80.683594 73.796875 79.886719 73.792969 M 10.109375 78.445312 C 9.3125 78.449219 8.667969 79.09375 8.667969 79.890625 C 8.667969 80.691406 9.316406 81.332031 10.109375 81.335938 C 10.90625 81.335938 11.554688 80.6875 11.554688 79.890625 C 11.554688 79.089844 10.90625 78.449219 10.109375 78.445312 M 24.066406 78.445312 C 23.269531 78.449219 22.625 79.09375 22.625 79.890625 C 22.625 80.691406 23.269531 81.332031 24.066406 81.335938 C 24.863281 81.335938 25.507812 80.6875 25.507812 79.890625 C 25.507812 79.089844 24.863281 78.449219 24.066406 78.445312 M 28.71875 78.445312 C 27.921875 78.449219 27.277344 79.09375 27.277344 79.890625 C 27.277344 80.691406 27.921875 81.332031 28.71875 81.335938 C 29.515625 81.335938 30.160156 80.6875 30.160156 79.890625 C 30.160156 79.089844 29.515625 78.449219 28.71875 78.445312 M 33.371094 78.445312 C 32.574219 78.449219 31.925781 79.09375 31.925781 79.890625 C 31.925781 80.691406 32.574219 81.332031 33.371094 81.335938 C 34.167969 81.335938 34.8125 80.6875 34.8125 79.890625 C 34.8125 79.089844 34.167969 78.449219 33.371094 78.445312 M 38.023438 78.445312 C 37.226562 78.449219 36.578125 79.09375 36.578125 79.890625 C 36.578125 80.691406 37.226562 81.332031 38.023438 81.335938 C 38.816406 81.335938 39.464844 80.6875 39.464844 79.890625 C 39.464844 79.089844 38.816406 78.449219 38.023438 78.445312 M 56.632812 78.445312 C 55.832031 78.449219 55.1875 79.09375 55.1875 79.890625 C 55.1875 80.691406 55.835938 81.332031 56.632812 81.335938 C 57.425781 81.335938 58.074219 80.6875 58.074219 79.890625 C 58.074219 79.089844 57.425781 78.449219 56.632812 78.445312 M 65.933594 78.445312 C 65.136719 78.449219 64.492188 79.09375 64.492188 79.890625 C 64.492188 80.691406 65.140625 81.332031 65.933594 81.335938 C 66.730469 81.335938 67.378906 80.6875 67.378906 79.890625 C 67.378906 79.089844 66.730469 78.449219 65.933594 78.445312 M 75.238281 78.445312 C 74.441406 78.449219 73.796875 79.09375 73.796875 79.890625 C 73.796875 80.691406 74.441406 81.332031 75.238281 81.335938 C 76.035156 81.335938 76.679688 80.6875 76.679688 79.890625 C 76.679688 79.089844 76.035156 78.449219 75.238281 78.445312 M 79.890625 78.445312 C 79.09375 78.449219 78.449219 79.09375 78.449219 79.890625 C 78.449219 80.691406 79.09375 81.332031 79.890625 81.335938 C 80.6875 81.335938 81.332031 80.6875 81.332031 79.890625 C 81.332031 79.089844 80.6875 78.449219 79.890625 78.445312 M 28.703125 83.097656 C 27.90625 83.097656 27.257812 83.746094 27.257812 84.542969 C 27.257812 85.339844 27.90625 85.988281 28.703125 85.988281 C 29.5 85.988281 30.148438 85.339844 30.148438 84.542969 C 30.148438 83.746094 29.5 83.097656 28.703125 83.097656 M 33.355469 83.097656 C 32.558594 83.097656 31.910156 83.746094 31.910156 84.542969 C 31.910156 85.339844 32.558594 85.988281 33.355469 85.988281 C 34.152344 85.988281 34.800781 85.339844 34.800781 84.542969 C 34.800781 83.746094 34.152344 83.097656 33.355469 83.097656 M 42.660156 83.097656 C 41.859375 83.097656 41.214844 83.746094 41.214844 84.542969 C 41.214844 85.339844 41.859375 85.988281 42.660156 85.988281 C 43.457031 85.988281 44.101562 85.339844 44.101562 84.542969 C 44.101562 83.746094 43.457031 83.097656 42.660156 83.097656 M 47.3125 83.097656 C 46.515625 83.097656 45.867188 83.746094 45.867188 84.542969 C 45.867188 85.339844 46.515625 85.988281 47.3125 85.988281 C 48.109375 85.988281 48.757812 85.339844 48.757812 84.542969 C 48.757812 83.746094 48.109375 83.097656 47.3125 83.097656 M 51.964844 83.097656 C 51.167969 83.097656 50.519531 83.746094 50.519531 84.542969 C 50.519531 85.339844 51.167969 85.988281 51.964844 85.988281 C 52.761719 85.988281 53.410156 85.339844 53.410156 84.542969 C 53.410156 83.746094 52.761719 83.097656 51.964844 83.097656 M 56.617188 83.097656 C 55.820312 83.097656 55.171875 83.746094 55.171875 84.542969 C 55.171875 85.339844 55.820312 85.988281 56.617188 85.988281 C 57.414062 85.988281 58.0625 85.339844 58.0625 84.542969 C 58.0625 83.746094 57.414062 83.097656 56.617188 83.097656 M 61.269531 83.097656 C 60.472656 83.097656 59.824219 83.746094 59.824219 84.542969 C 59.824219 85.339844 60.472656 85.988281 61.269531 85.988281 C 62.066406 85.988281 62.714844 85.339844 62.714844 84.542969 C 62.714844 83.746094 62.066406 83.097656 61.269531 83.097656 " fill-opacity="1" fill-rule="nonzero"/></svg>