<svg xmlns="http://www.w3.org/2000/svg" xmlns:xlink="http://www.w3.org/1999/xlink" width="120" zoomAndPan="magnify" viewBox="0 0 90 89.999999" height="120" preserveAspectRatio="xMidYMid meet" version="1.0"><path fill="#010101" d="M 9 0 L 81 0 C 85.972656 0 90 4.027344 90 9 L 90 81 C 90 85.972656 85.972656 90 81 90 L 9 90 C 4.027344 90 0 85.972656 0 81 L 0 9 C 0 4.027344 4.027344 0 9 0 Z M 9 0 " fill-opacity="1" fill-rule="evenodd"/><path fill="#ee1d51" d="M 56.511719 82.800781 C 59.25 82.800781 61.472656 80.597656 61.472656 77.882812 C 61.472656 75.164062 59.25 72.964844 56.511719 72.964844 L 55.765625 72.964844 C 58.503906 72.964844 60.722656 75.164062 60.722656 77.882812 C 60.722656 80.597656 58.503906 82.800781 55.765625 82.800781 Z M 56.511719 82.800781 " fill-opacity="1" fill-rule="evenodd"/><path fill="#66c8cf" d="M 55.699219 72.964844 L 54.949219 72.964844 C 52.210938 72.964844 49.992188 75.164062 49.992188 77.882812 C 49.992188 80.597656 52.210938 82.800781 54.949219 82.800781 L 55.699219 82.800781 C 52.960938 82.800781 50.738281 80.597656 50.738281 77.882812 C 50.738281 75.164062 52.960938 72.964844 55.699219 72.964844 Z M 55.699219 72.964844 " fill-opacity="1" fill-rule="evenodd"/><path fill="#010101" d="M 58.144531 77.882812 C 58.144531 78.199219 58.082031 78.503906 57.960938 78.796875 C 57.835938 79.089844 57.664062 79.347656 57.4375 79.574219 C 57.210938 79.796875 56.949219 79.96875 56.65625 80.089844 C 56.359375 80.210938 56.050781 80.273438 55.730469 80.273438 C 55.414062 80.273438 55.105469 80.210938 54.808594 80.089844 C 54.511719 79.96875 54.253906 79.796875 54.027344 79.574219 C 53.800781 79.347656 53.625 79.089844 53.503906 78.796875 C 53.382812 78.503906 53.320312 78.199219 53.320312 77.882812 C 53.320312 77.566406 53.382812 77.257812 53.503906 76.964844 C 53.625 76.671875 53.800781 76.414062 54.027344 76.191406 C 54.253906 75.964844 54.511719 75.792969 54.808594 75.671875 C 55.105469 75.550781 55.414062 75.488281 55.730469 75.488281 C 56.050781 75.488281 56.359375 75.550781 56.65625 75.671875 C 56.949219 75.792969 57.210938 75.964844 57.4375 76.191406 C 57.664062 76.414062 57.835938 76.671875 57.960938 76.964844 C 58.082031 77.257812 58.144531 77.566406 58.144531 77.882812 Z M 58.144531 77.882812 " fill-opacity="1" fill-rule="nonzero"/><path fill="#ffffff" d="M 18 70.738281 L 18 73.234375 L 20.921875 73.234375 L 20.921875 82.734375 L 23.839844 82.734375 L 23.839844 73.300781 L 26.21875 73.300781 L 27.035156 70.738281 Z M 41.910156 70.738281 L 41.910156 73.234375 L 44.828125 73.234375 L 44.828125 82.734375 L 47.75 82.734375 L 47.75 73.300781 L 50.128906 73.300781 L 50.941406 70.738281 Z M 27.578125 72.15625 C 27.578125 71.375 28.214844 70.738281 29.003906 70.738281 C 29.792969 70.738281 30.429688 71.375 30.429688 72.15625 C 30.429688 72.9375 29.792969 73.570312 29.003906 73.570312 C 28.214844 73.570312 27.578125 72.9375 27.578125 72.15625 Z M 27.578125 74.582031 L 30.429688 74.582031 L 30.429688 82.734375 L 27.578125 82.734375 Z M 31.652344 70.738281 L 31.652344 82.734375 L 34.503906 82.734375 L 34.503906 79.632812 L 35.390625 78.824219 L 38.171875 82.800781 L 41.230469 82.800781 L 37.222656 77.003906 L 40.820312 73.5 L 37.359375 73.5 L 34.503906 76.332031 L 34.503906 70.738281 Z M 62.421875 70.738281 L 62.421875 82.734375 L 65.273438 82.734375 L 65.273438 79.632812 L 66.15625 78.824219 L 68.941406 82.800781 L 72 82.800781 L 67.992188 77.003906 L 71.59375 73.5 L 68.128906 73.5 L 65.273438 76.332031 L 65.273438 70.738281 Z M 62.421875 70.738281 " fill-opacity="1" fill-rule="evenodd"/><path fill="#ee1d52" d="M 58.019531 29.226562 C 61.960938 32.042969 66.785156 33.699219 72 33.699219 L 72 23.671875 C 71.011719 23.671875 70.03125 23.570312 69.0625 23.363281 L 69.0625 31.257812 C 63.851562 31.257812 59.023438 29.601562 55.085938 26.785156 L 55.085938 47.246094 C 55.085938 57.480469 46.78125 65.777344 36.542969 65.777344 C 32.722656 65.777344 29.171875 64.625 26.21875 62.644531 C 29.585938 66.085938 34.28125 68.21875 39.476562 68.21875 C 49.71875 68.21875 58.019531 59.921875 58.019531 49.6875 Z M 61.640625 19.113281 C 59.628906 16.914062 58.304688 14.070312 58.019531 10.929688 L 58.019531 9.640625 L 55.238281 9.640625 C 55.9375 13.632812 58.328125 17.042969 61.640625 19.113281 Z M 32.695312 54.789062 C 31.539062 53.273438 30.964844 51.5625 30.96875 49.65625 C 30.96875 44.976562 34.765625 41.179688 39.449219 41.179688 C 40.328125 41.179688 41.183594 41.3125 42.023438 41.578125 L 42.023438 31.328125 C 41.046875 31.195312 40.070312 31.136719 39.085938 31.160156 L 39.085938 39.136719 C 38.25 38.871094 37.390625 38.738281 36.511719 38.742188 C 31.828125 38.742188 28.03125 42.535156 28.03125 47.21875 C 28.03125 50.527344 29.929688 53.394531 32.695312 54.789062 Z M 32.695312 54.789062 " fill-opacity="1" fill-rule="evenodd"/><path fill="#ffffff" d="M 55.085938 26.785156 C 59.023438 29.601562 63.851562 31.257812 69.0625 31.257812 L 69.0625 23.363281 C 66.15625 22.746094 63.578125 21.226562 61.640625 19.113281 C 58.328125 17.042969 55.9375 13.632812 55.238281 9.640625 L 47.929688 9.640625 L 47.929688 49.6875 C 47.914062 54.355469 44.121094 58.136719 39.449219 58.136719 C 36.695312 58.136719 34.246094 56.824219 32.695312 54.789062 C 29.929688 53.394531 28.03125 50.527344 28.03125 47.21875 C 28.03125 42.535156 31.828125 38.742188 36.511719 38.742188 C 37.410156 38.742188 38.273438 38.878906 39.085938 39.136719 L 39.085938 31.160156 C 29.027344 31.367188 20.933594 39.582031 20.933594 49.6875 C 20.933594 54.730469 22.949219 59.304688 26.21875 62.644531 C 29.171875 64.625 32.722656 65.777344 36.542969 65.777344 C 46.78125 65.777344 55.085938 57.480469 55.085938 47.246094 Z M 55.085938 26.785156 " fill-opacity="1" fill-rule="evenodd"/><path fill="#69c9d0" d="M 69.0625 23.363281 L 69.0625 21.230469 C 66.386719 21.234375 63.914062 20.527344 61.640625 19.113281 C 62.628906 20.191406 63.753906 21.089844 65.019531 21.816406 C 66.289062 22.542969 67.636719 23.058594 69.0625 23.363281 Z M 55.238281 9.640625 C 55.171875 9.257812 55.121094 8.875 55.085938 8.488281 L 55.085938 7.199219 L 44.996094 7.199219 L 44.996094 47.246094 C 44.976562 51.914062 41.1875 55.695312 36.511719 55.695312 C 35.140625 55.695312 33.84375 55.367188 32.695312 54.789062 C 34.246094 56.824219 36.695312 58.136719 39.449219 58.136719 C 44.121094 58.136719 47.914062 54.355469 47.929688 49.6875 L 47.929688 9.640625 Z M 39.085938 31.160156 L 39.085938 28.886719 C 38.242188 28.773438 37.394531 28.714844 36.542969 28.714844 C 26.300781 28.714844 18 37.011719 18 47.246094 C 18 53.664062 21.261719 59.316406 26.21875 62.644531 C 22.949219 59.304688 20.9375 54.730469 20.9375 49.6875 C 20.9375 39.582031 29.027344 31.367188 39.085938 31.160156 Z M 39.085938 31.160156 " fill-opacity="1" fill-rule="evenodd"/><path fill="#ffffff" d="M 55.765625 82.800781 C 58.503906 82.800781 60.722656 80.597656 60.722656 77.882812 C 60.722656 75.164062 58.503906 72.964844 55.765625 72.964844 L 55.699219 72.964844 C 52.960938 72.964844 50.738281 75.164062 50.738281 77.882812 C 50.738281 80.597656 52.960938 82.800781 55.699219 82.800781 Z M 53.320312 77.882812 C 53.320312 76.558594 54.398438 75.488281 55.730469 75.488281 C 57.0625 75.488281 58.144531 76.558594 58.144531 77.882812 C 58.144531 79.203125 57.0625 80.273438 55.730469 80.273438 C 54.398438 80.273438 53.320312 79.203125 53.320312 77.882812 Z M 53.320312 77.882812 " fill-opacity="1" fill-rule="evenodd"/></svg>