<svg xmlns="http://www.w3.org/2000/svg" xmlns:xlink="http://www.w3.org/1999/xlink" width="120" zoomAndPan="magnify" viewBox="0 0 90 89.999999" height="120" preserveAspectRatio="xMidYMid meet" version="1.0"><defs><clipPath id="eb84f1acbd"><path d="M 0 45 C 0 69.851562 20.148438 90 45 90 C 69.851562 90 90 69.851562 90 45 C 90 20.144531 69.851562 0 45 0 C 20.148438 0 0 20.144531 0 45 " clip-rule="nonzero"/></clipPath><clipPath id="72053657b5"><path d="M 0 45 C 0 69.851562 20.148438 90 45 90 C 69.851562 90 90 69.851562 90 45 C 90 20.144531 69.851562 0 45 0 C 20.148438 0 0 20.144531 0 45 " clip-rule="nonzero"/></clipPath><linearGradient x1="133.903" gradientTransform="matrix(0.381361, 0, 0, -0.381361, -6.065155, 95.338113)" y1="13.998001" x2="133.903" gradientUnits="userSpaceOnUse" y2="249.994445" id="730286e37d"><stop stop-opacity="1" stop-color="rgb(11.399841%, 57.598877%, 82.398987%)" offset="0"/><stop stop-opacity="1" stop-color="rgb(11.564636%, 57.777405%, 82.501221%)" offset="0.03125"/><stop stop-opacity="1" stop-color="rgb(11.895752%, 58.132935%, 82.707214%)" offset="0.0625"/><stop stop-opacity="1" stop-color="rgb(12.226868%, 58.48999%, 82.914734%)" offset="0.09375"/><stop stop-opacity="1" stop-color="rgb(12.557983%, 58.84552%, 83.120728%)" offset="0.125"/><stop stop-opacity="1" stop-color="rgb(12.889099%, 59.202576%, 83.326721%)" offset="0.15625"/><stop stop-opacity="1" stop-color="rgb(13.220215%, 59.558105%, 83.532715%)" offset="0.1875"/><stop stop-opacity="1" stop-color="rgb(13.551331%, 59.913635%, 83.738708%)" offset="0.21875"/><stop stop-opacity="1" stop-color="rgb(13.882446%, 60.270691%, 83.944702%)" offset="0.25"/><stop stop-opacity="1" stop-color="rgb(14.213562%, 60.626221%, 84.152222%)" offset="0.28125"/><stop stop-opacity="1" stop-color="rgb(14.544678%, 60.983276%, 84.358215%)" offset="0.3125"/><stop stop-opacity="1" stop-color="rgb(14.877319%, 61.338806%, 84.564209%)" offset="0.34375"/><stop stop-opacity="1" stop-color="rgb(15.208435%, 61.695862%, 84.770203%)" offset="0.375"/><stop stop-opacity="1" stop-color="rgb(15.539551%, 62.051392%, 84.976196%)" offset="0.40625"/><stop stop-opacity="1" stop-color="rgb(15.870667%, 62.408447%, 85.18219%)" offset="0.4375"/><stop stop-opacity="1" stop-color="rgb(16.201782%, 62.763977%, 85.389709%)" offset="0.46875"/><stop stop-opacity="1" stop-color="rgb(16.532898%, 63.121033%, 85.595703%)" offset="0.5"/><stop stop-opacity="1" stop-color="rgb(16.864014%, 63.476562%, 85.801697%)" offset="0.53125"/><stop stop-opacity="1" stop-color="rgb(17.195129%, 63.833618%, 86.00769%)" offset="0.5625"/><stop stop-opacity="1" stop-color="rgb(17.526245%, 64.189148%, 86.213684%)" offset="0.59375"/><stop stop-opacity="1" stop-color="rgb(17.857361%, 64.546204%, 86.419678%)" offset="0.625"/><stop stop-opacity="1" stop-color="rgb(18.188477%, 64.901733%, 86.627197%)" offset="0.65625"/><stop stop-opacity="1" stop-color="rgb(18.519592%, 65.258789%, 86.833191%)" offset="0.6875"/><stop stop-opacity="1" stop-color="rgb(18.852234%, 65.614319%, 87.039185%)" offset="0.71875"/><stop stop-opacity="1" stop-color="rgb(19.18335%, 65.969849%, 87.245178%)" offset="0.75"/><stop stop-opacity="1" stop-color="rgb(19.514465%, 66.326904%, 87.451172%)" offset="0.78125"/><stop stop-opacity="1" stop-color="rgb(19.845581%, 66.682434%, 87.657166%)" offset="0.8125"/><stop stop-opacity="1" stop-color="rgb(20.176697%, 67.03949%, 87.864685%)" offset="0.84375"/><stop stop-opacity="1" stop-color="rgb(20.507812%, 67.39502%, 88.070679%)" offset="0.875"/><stop stop-opacity="1" stop-color="rgb(20.838928%, 67.752075%, 88.276672%)" offset="0.90625"/><stop stop-opacity="1" stop-color="rgb(21.170044%, 68.107605%, 88.482666%)" offset="0.9375"/><stop stop-opacity="1" stop-color="rgb(21.50116%, 68.464661%, 88.68866%)" offset="0.96875"/><stop stop-opacity="1" stop-color="rgb(21.832275%, 68.82019%, 88.894653%)" offset="1"/></linearGradient></defs><g clip-path="url(#eb84f1acbd)"><g clip-path="url(#72053657b5)"><rect x="-9" fill="url(#730286e37d)" width="108" y="-9" height="107.999999"/></g></g><path fill="#c8daea" d="M 30.460938 48.289062 L 35.800781 63.066406 C 35.800781 63.066406 36.46875 64.449219 37.183594 64.449219 C 37.898438 64.449219 48.527344 53.386719 48.527344 53.386719 L 60.351562 30.554688 L 30.652344 44.472656 Z M 30.460938 48.289062 " fill-opacity="1" fill-rule="nonzero"/><path fill="#a9c6d8" d="M 37.539062 52.078125 L 36.515625 62.96875 C 36.515625 62.96875 36.085938 66.308594 39.421875 62.96875 C 42.757812 59.632812 45.953125 57.058594 45.953125 57.058594 " fill-opacity="1" fill-rule="nonzero"/><path fill="#ffffff" d="M 30.558594 48.816406 L 19.574219 45.238281 C 19.574219 45.238281 18.265625 44.707031 18.6875 43.496094 C 18.773438 43.25 18.949219 43.039062 19.472656 42.671875 C 21.90625 40.976562 64.511719 25.660156 64.511719 25.660156 C 64.511719 25.660156 65.714844 25.257812 66.425781 25.527344 C 66.75 25.648438 66.960938 25.789062 67.132812 26.296875 C 67.199219 26.480469 67.234375 26.875 67.230469 27.265625 C 67.226562 27.546875 67.191406 27.808594 67.167969 28.21875 C 66.90625 32.40625 59.140625 63.652344 59.140625 63.652344 C 59.140625 63.652344 58.675781 65.484375 57.011719 65.542969 C 56.40625 65.566406 55.667969 65.445312 54.789062 64.6875 C 51.523438 61.875 40.230469 54.289062 37.738281 52.621094 C 37.59375 52.527344 37.554688 52.402344 37.53125 52.285156 C 37.496094 52.109375 37.683594 51.890625 37.683594 51.890625 C 37.683594 51.890625 57.34375 34.414062 57.867188 32.582031 C 57.90625 32.4375 57.753906 32.367188 57.550781 32.429688 C 56.242188 32.910156 33.609375 47.203125 31.109375 48.78125 C 30.964844 48.875 30.554688 48.816406 30.554688 48.816406 " fill-opacity="1" fill-rule="nonzero"/></svg>